<svg version="1.1" id="Layer_1" xmlns:x="ns_extend;" xmlns:i="ns_ai;" xmlns:graph="ns_graphs;" xmlns="http://www.w3.org/2000/svg" xmlns:xlink="http://www.w3.org/1999/xlink" x="0px" y="0px" viewBox="0 0 443 78" style="enable-background:new 0 0 443 78;" xml:space="preserve">
 <style type="text/css">
  .st0{fill:#FFFFFF;}
 </style>
 <metadata>
  <sfw xmlns="ns_sfw;">
   <slices>
   </slices>
   <sliceSourceBounds bottomLeftOrigin="true" height="78" width="443" x="1" y="89.9">
   </sliceSourceBounds>
  </sfw>
 </metadata>
 <g>
  <path class="st0" d="M71.8,31.7c0,0.2,0,0.4-0.1,0.6c-0.1,0.2-0.2,0.3-0.3,0.5c-0.1,0.1-0.3,0.2-0.5,0.3c-0.2,0.1-0.4,0.1-0.6,0.1
		h-27c-0.2,0-0.4,0-0.6-0.1c-0.2-0.1-0.3-0.2-0.5-0.3c-0.1-0.1-0.2-0.3-0.3-0.5C42,32.1,42,31.9,42,31.7v-3.1c0-0.2,0-0.4,0.1-0.6
		c0.1-0.2,0.2-0.3,0.3-0.5c0.1-0.1,0.3-0.2,0.5-0.3c0.2-0.1,0.4-0.1,0.6-0.1h26.9c0.2,0,0.4,0,0.6,0.1c0.2,0.1,0.3,0.2,0.5,0.3
		c0.1,0.1,0.2,0.3,0.3,0.5c0.1,0.2,0.1,0.4,0.1,0.6L71.8,31.7z">
  </path>
  <path class="st0" d="M83.7,40.6c0,0.2,0,0.4-0.1,0.6c-0.1,0.2-0.2,0.3-0.3,0.5c-0.1,0.1-0.3,0.2-0.5,0.3C82.7,42,82.5,42,82.3,42
		H49.1c-0.2,0-0.4,0-0.6-0.1c-0.2-0.1-0.3-0.2-0.5-0.3c-0.1-0.1-0.2-0.3-0.3-0.5c-0.1-0.2-0.1-0.4-0.1-0.6v-3.1c0-0.2,0-0.4,0.1-0.6
		c0.1-0.2,0.2-0.3,0.3-0.5s0.3-0.2,0.5-0.3c0.2-0.1,0.4-0.1,0.6-0.1H82c0.2,0,0.4,0,0.6,0.1c0.2,0.1,0.3,0.2,0.5,0.3
		c0.1,0.1,0.2,0.3,0.3,0.5c0.1,0.2,0.1,0.4,0.1,0.6L83.7,40.6z">
  </path>
  <path class="st0" d="M92.8,49.6c0,0.2,0,0.4-0.1,0.6c-0.1,0.2-0.2,0.3-0.3,0.5c-0.1,0.1-0.3,0.2-0.5,0.3c-0.2,0.1-0.4,0.1-0.6,0.1
		H55.3c-0.2,0-0.4,0-0.6-0.1c-0.2-0.1-0.3-0.2-0.5-0.3c-0.1-0.1-0.2-0.3-0.3-0.5c-0.1-0.2-0.1-0.4-0.1-0.6v-3.1c0-0.2,0-0.4,0.1-0.6
		c0.1-0.2,0.2-0.3,0.3-0.5c0.1-0.1,0.3-0.2,0.5-0.3c0.2-0.1,0.4-0.1,0.6-0.1h36.1c0.2,0,0.4,0,0.6,0.1c0.2,0.1,0.3,0.2,0.5,0.3
		c0.1,0.1,0.2,0.3,0.3,0.5c0.1,0.2,0.1,0.4,0.1,0.6V49.6z">
  </path>
  <path class="st0" d="M92.8,58.7c0,0.2,0,0.4-0.1,0.6c-0.1,0.2-0.2,0.3-0.3,0.5c-0.1,0.1-0.3,0.2-0.5,0.3c-0.2,0.1-0.4,0.1-0.6,0.1
		H55.3c-0.2,0-0.4,0-0.6-0.1c-0.2-0.1-0.3-0.2-0.5-0.3s-0.2-0.3-0.3-0.5c-0.1-0.2-0.1-0.4-0.1-0.6v-3.1c0-0.2,0-0.4,0.1-0.6
		c0.1-0.2,0.2-0.3,0.3-0.5c0.1-0.1,0.3-0.2,0.5-0.3c0.2-0.1,0.4-0.1,0.6-0.1h36.1c0.2,0,0.4,0,0.6,0.1c0.2,0.1,0.3,0.2,0.5,0.3
		c0.1,0.1,0.2,0.3,0.3,0.5c0.1,0.2,0.1,0.4,0.1,0.6V58.7z">
  </path>
  <path class="st0" d="M83.7,67.5c0,0.2,0,0.4-0.1,0.6c-0.1,0.2-0.2,0.3-0.3,0.5c-0.1,0.1-0.3,0.2-0.5,0.3S82.5,69,82.3,69H49.1
		c-0.2,0-0.4,0-0.6-0.1c-0.2-0.1-0.3-0.2-0.5-0.3c-0.1-0.1-0.2-0.3-0.3-0.5c-0.1-0.2-0.1-0.4-0.1-0.6v-3.1c0-0.2,0-0.4,0.1-0.6
		c0.1-0.2,0.2-0.3,0.3-0.5c0.1-0.1,0.3-0.2,0.5-0.3c0.2-0.1,0.4-0.1,0.6-0.1H82c0.2,0,0.4,0,0.6,0.1s0.3,0.2,0.5,0.3
		c0.1,0.1,0.2,0.3,0.3,0.5s0.1,0.4,0.1,0.6L83.7,67.5z">
  </path>
  <path class="st0" d="M71.8,76.6c0,0.2,0,0.4-0.1,0.6c-0.1,0.2-0.2,0.3-0.3,0.5c-0.1,0.1-0.3,0.2-0.5,0.3c-0.2,0.1-0.4,0.1-0.6,0.1
		h-27c-0.2,0-0.4,0-0.6-0.1c-0.2-0.1-0.3-0.2-0.5-0.3c-0.1-0.1-0.2-0.3-0.3-0.5S42,76.8,42,76.6v-3.1c0-0.2,0-0.4,0.1-0.6
		c0.1-0.2,0.2-0.3,0.3-0.5s0.3-0.2,0.5-0.3c0.2-0.1,0.4-0.1,0.6-0.1h26.9c0.2,0,0.4,0,0.6,0.1c0.2,0.1,0.3,0.2,0.5,0.3
		s0.2,0.3,0.3,0.5c0.1,0.2,0.1,0.4,0.1,0.6L71.8,76.6z">
  </path>
  <path class="st0" d="M20.7,4.6c0,0.2,0,0.4,0.1,0.6c0.1,0.2,0.2,0.3,0.3,0.5c0.1,0.1,0.3,0.2,0.5,0.3C21.8,5.9,21.9,6,22.1,6h27
		c0.2,0,0.4,0,0.6-0.1c0.2-0.1,0.3-0.2,0.5-0.3c0.1-0.1,0.2-0.3,0.3-0.5c0.1-0.2,0.1-0.4,0.1-0.6V1.4c0-0.2,0-0.4-0.1-0.6
		c-0.1-0.2-0.2-0.3-0.3-0.5c-0.1-0.1-0.3-0.2-0.5-0.3C49.5,0,49.3,0,49.1,0h-27c-0.2,0-0.4,0-0.6,0.1c-0.2,0.1-0.3,0.2-0.5,0.3
		c-0.1,0.1-0.2,0.3-0.3,0.5c-0.1,0.2-0.1,0.4-0.1,0.6V4.6z">
  </path>
  <path class="st0" d="M9.1,13.6c0,0.2,0,0.4,0.1,0.6c0.1,0.2,0.2,0.3,0.3,0.5c0.1,0.1,0.3,0.2,0.5,0.3c0.2,0.1,0.4,0.1,0.6,0.1h32.9
		c0.2,0,0.4,0,0.6-0.1c0.2-0.1,0.3-0.2,0.5-0.3c0.1-0.1,0.2-0.3,0.3-0.5c0.1-0.2,0.1-0.4,0.1-0.6v-3.1c0-0.2,0-0.4-0.1-0.6
		c-0.1-0.2-0.2-0.3-0.3-0.5c-0.1-0.1-0.3-0.2-0.5-0.3c-0.2-0.1-0.4-0.1-0.6-0.1H10.5c-0.2,0-0.4,0-0.6,0.1C9.8,9.2,9.6,9.3,9.5,9.5
		C9.3,9.6,9.2,9.8,9.2,9.9c-0.1,0.2-0.1,0.4-0.1,0.6V13.6z">
  </path>
  <path class="st0" d="M0,22.7c0,0.2,0,0.4,0.1,0.6c0.1,0.2,0.2,0.3,0.3,0.5C0.5,23.9,0.7,24,0.9,24c0.2,0.1,0.4,0.1,0.6,0.1h36.1
		c0.2,0,0.4,0,0.6-0.1s0.3-0.2,0.5-0.3s0.2-0.3,0.3-0.5c0.1-0.2,0.1-0.4,0.1-0.6v-3.1c0-0.2,0-0.4-0.1-0.6c-0.1-0.2-0.2-0.3-0.3-0.5
		c-0.1-0.1-0.3-0.2-0.5-0.3c-0.2-0.1-0.4-0.1-0.6-0.1H1.4c-0.2,0-0.4,0-0.6,0.1c-0.2,0.1-0.3,0.2-0.5,0.3c-0.1,0.1-0.2,0.3-0.3,0.5
		C0,19.2,0,19.4,0,19.6V22.7z">
  </path>
  <path class="st0" d="M0,31.7c0,0.2,0,0.4,0.1,0.6c0.1,0.2,0.2,0.3,0.3,0.5C0.5,32.9,0.7,33,0.9,33c0.2,0.1,0.4,0.1,0.6,0.1h36.1
		c0.2,0,0.4,0,0.6-0.1c0.2-0.1,0.3-0.2,0.5-0.3c0.1-0.1,0.2-0.3,0.3-0.5c0.1-0.2,0.1-0.4,0.1-0.6v-3.1c0-0.2,0-0.4-0.1-0.6
		c-0.1-0.2-0.2-0.3-0.3-0.5c-0.1-0.1-0.3-0.2-0.5-0.3c-0.2-0.1-0.4-0.1-0.6-0.1H1.4c-0.2,0-0.4,0-0.6,0.1c-0.2,0.1-0.3,0.2-0.5,0.3
		c-0.1,0.1-0.2,0.3-0.3,0.5C0,28.3,0,28.5,0,28.7V31.7z">
  </path>
  <path class="st0" d="M9.1,40.6c0,0.2,0,0.4,0.1,0.6c0.1,0.2,0.2,0.3,0.3,0.5c0.1,0.1,0.3,0.2,0.5,0.3c0.2,0.1,0.4,0.1,0.6,0.1h32.9
		c0.2,0,0.4,0,0.6-0.1c0.2-0.1,0.3-0.2,0.5-0.3c0.1-0.1,0.2-0.3,0.3-0.5c0.1-0.2,0.1-0.4,0.1-0.6v-3.1c0-0.2,0-0.4-0.1-0.6
		c-0.1-0.2-0.2-0.3-0.3-0.5c-0.1-0.1-0.3-0.2-0.5-0.3c-0.2-0.1-0.4-0.1-0.6-0.1H10.5c-0.2,0-0.4,0-0.6,0.1c-0.2,0.1-0.3,0.2-0.5,0.3
		c-0.1,0.1-0.2,0.3-0.3,0.5c-0.1,0.2-0.1,0.4-0.1,0.6V40.6z">
  </path>
  <path class="st0" d="M20.7,49.6c0,0.2,0,0.4,0.1,0.6c0.1,0.2,0.2,0.3,0.3,0.5c0.1,0.1,0.3,0.2,0.5,0.3c0.2,0.1,0.4,0.1,0.6,0.1h27
		c0.2,0,0.4,0,0.6-0.1c0.2-0.1,0.3-0.2,0.5-0.3c0.1-0.1,0.2-0.3,0.3-0.5c0.1-0.2,0.1-0.4,0.1-0.6v-3.1c0-0.2,0-0.4-0.1-0.6
		c-0.1-0.2-0.2-0.3-0.3-0.5c-0.1-0.1-0.3-0.2-0.5-0.3c-0.2-0.1-0.4-0.1-0.6-0.1h-27c-0.2,0-0.4,0-0.6,0.1c-0.2,0.1-0.3,0.2-0.5,0.3
		c-0.1,0.1-0.2,0.3-0.3,0.5c-0.1,0.2-0.1,0.4-0.1,0.6V49.6z">
  </path>
  <path class="st0" d="M128.3,56.8c-1.4,0.2-2.8,0.3-4.3,0.3c-2.9,0.2-5.8-0.4-8.5-1.7c-0.9-0.6-1.8-1.4-2.4-2.3
		c-0.6-0.9-1.1-2-1.3-3.1c-0.7-3.7-0.9-7.4-0.8-11.1c-0.1-3.7,0.2-7.4,0.8-11.1c0.2-1.1,0.6-2.2,1.2-3.1c0.6-0.9,1.5-1.7,2.5-2.3
		c1.7-1.1,4.5-1.7,8.5-1.7c1.3,0,2.7,0,4,0.3c1.1,0.3,2.3,0.5,3.4,0.6v6.2c-2.8-0.3-4.8-0.6-5.7-0.6c-1.6,0-3.3,0.1-4.8,0.6
		c-0.8,0.3-1.4,1.4-1.7,2.8c-0.3,2.6-0.4,5.3-0.3,7.9c-0.1,2.7,0,5.3,0.3,8c0.1,0.6,0.3,1.1,0.5,1.6c0.3,0.5,0.7,0.9,1.1,1.2
		c1.5,0.6,3.2,0.7,4.8,0.6c2-0.1,4-0.2,6-0.6v6.2C130.7,56.2,129.5,56.6,128.3,56.8z">
  </path>
  <path class="st0" d="M140.5,55.3c-0.9-0.6-1.6-1.3-2.2-2.2c-0.6-0.9-1-1.9-1.2-2.9c-0.5-3.8-0.7-7.6-0.6-11.4
		c0-3.8,0.2-7.6,0.6-11.4c0.1-1.1,0.5-2.1,1.1-3s1.4-1.6,2.3-2.1c1.7-1.1,4.8-1.4,9.1-1.4c3.1-0.2,6.2,0.3,9.1,1.4
		c0.9,0.6,1.6,1.3,2.2,2.2c0.6,0.9,1,1.9,1.2,2.9c0.6,3.8,0.7,7.6,0.6,11.4c0,3.8-0.1,7.6-0.6,11.4c-0.2,1-0.6,2-1.1,2.9
		c-0.6,0.9-1.4,1.6-2.3,2.2c-2,1.1-4.8,1.4-9.1,1.4C145.3,57,141.9,56.5,140.5,55.3z M153.3,49.6c0.4-0.3,0.7-0.7,0.9-1.1
		s0.3-0.9,0.3-1.4c0.3-2.7,0.4-5.5,0.3-8.2c0.1-2.7,0-5.5-0.3-8.2c-0.3-1.4-0.6-2.3-1.1-2.5c-2.4-0.8-5-0.8-7.4,0
		c-0.4,0.3-0.7,0.7-0.9,1.1c-0.2,0.4-0.3,0.9-0.3,1.4c-0.3,2.7-0.4,5.5-0.3,8.2c-0.1,2.7,0,5.5,0.3,8.2c0.3,1.4,0.6,2.3,1.1,2.5
		c1.2,0.4,2.4,0.6,3.7,0.6C150.8,50.4,152.1,50.2,153.3,49.6z">
  </path>
  <path class="st0" d="M186.5,56.5l-10.2-20.1H176v20.1h-7.7V21.3h7.9l9.6,18.4h0.3V21.3h7.7v35.2H186.5z">
  </path>
  <path class="st0" d="M205.8,56.5V28.3h-8.2v-6.8h24.4v6.8h-8.2v28.1L205.8,56.5z">
  </path>
  <path class="st0" d="M225.6,56.5V21.3h21v6.5h-13.3v7.4h11.4v6.5h-11.4v7.9h13.3v6.5h-21V56.5z">
  </path>
  <path class="st0" d="M270.5,56.5l-10.2-20.1H260v20.1h-7.7V21.3h8l9.6,18.4h0.3V21.3h7.7v35.2H270.5z">
  </path>
  <path class="st0" d="M290.1,56.5V28.3h-8.2v-6.8h24.4v6.8h-8.2v28.1L290.1,56.5z">
  </path>
  <path class="st0" d="M309.9,56.2v-6.2c4.3,0.3,7.1,0.6,9.1,0.6c1.1,0.1,2.3,0,3.4-0.3c0.8-0.3,1.4-0.3,1.7-0.6
		c0.2-0.1,0.3-0.3,0.4-0.5c0.1-0.2,0.2-0.4,0.2-0.6v-2c0-1.1,0-2-0.3-2.3c-0.2-0.4-0.5-0.8-0.8-1.1c-0.7-0.4-1.5-0.6-2.3-0.6
		l-5.7-0.8c-1.1-0.1-2.1-0.4-3.1-0.9c-0.9-0.5-1.7-1.3-2.3-2.2c-1.2-2.2-1.7-4.6-1.4-7.1c-0.1-2.3,0.4-4.7,1.4-6.8
		c0.9-1.5,2.3-2.6,4-3.1c2.1-0.6,4.3-0.9,6.5-0.8c3.3,0,6.7,0.4,9.9,1.1v6.2c-3.1-0.3-5.7-0.6-8.2-0.6c-1.6-0.1-3.3,0.1-4.8,0.6
		c-0.6,0.3-0.6,0.6-0.8,1.1c-0.2,0.6-0.3,1.3-0.3,2c-0.1,0.7,0,1.4,0.3,2c0.3,0.3,0.3,0.6,0.6,0.8c0.3,0.3,0.8,0.3,2,0.6l6,0.8
		c1.2,0.2,2.3,0.6,3.4,1.1c1,0.6,1.7,1.5,2.3,2.6c0.8,2.1,1.2,4.3,1.1,6.5c0.1,2.5-0.4,5.1-1.4,7.4c-0.8,1.5-2.1,2.7-3.7,3.4
		c-2,0.6-4.1,0.9-6.2,0.8C316.5,57,312.8,56.5,309.9,56.2z">
  </path>
  <path class="st0" d="M342.9,56.5V28.3h-8.2v-6.8H359v6.8h-8.2v28.1L342.9,56.5z">
  </path>
  <path class="st0" d="M380.3,56.5l-1.7-7.1h-10.5l-1.7,7.1h-8l9.4-35.2h11.1l9.4,35.2H380.3z M373.2,28.7l-3.7,14.2h7.1L373.2,28.7z
		">
  </path>
  <path class="st0" d="M408.1,56.8c-1.4,0.2-2.8,0.3-4.3,0.3c-2.9,0.2-5.8-0.4-8.5-1.7c-1-0.6-1.8-1.3-2.5-2.3
		c-0.6-0.9-1.1-2-1.2-3.1c-0.7-3.7-0.9-7.4-0.8-11.1c-0.1-3.7,0.2-7.4,0.8-11.1c0.2-1.1,0.6-2.2,1.2-3.1c0.6-0.9,1.5-1.7,2.5-2.3
		c1.7-1.1,4.5-1.7,8.5-1.7c1.3,0,2.7,0,4,0.3c1.1,0.3,2.3,0.5,3.4,0.6v6.2c-2.8-0.3-4.8-0.6-5.7-0.6c-1.6,0-3.3,0.1-4.8,0.6
		c-0.5,0.3-0.9,0.7-1.2,1.2c-0.3,0.5-0.5,1-0.5,1.6c-0.3,2.6-0.4,5.3-0.3,7.9c-0.1,2.7,0,5.3,0.3,8c0.1,0.6,0.3,1.1,0.5,1.6
		c0.3,0.5,0.7,0.9,1.1,1.2c1.5,0.6,3.2,0.7,4.8,0.6c2-0.1,4-0.2,6-0.6v6.2C410.5,56.2,409.3,56.6,408.1,56.8z">
  </path>
  <path class="st0" d="M434.5,56.5L426.6,42h-2.3v14.5h-7.9V21.3h7.9v13.9h2.3l7.9-13.9h8.5L432.8,38L443,56.2L434.5,56.5z">
  </path>
 </g>
</svg>