<svg version="1.1" id="Contentful_dark_" xmlns:x="ns_extend;" xmlns:i="ns_ai;" xmlns:graph="ns_graphs;" xmlns="http://www.w3.org/2000/svg" xmlns:xlink="http://www.w3.org/1999/xlink" x="0px" y="0px" viewBox="0 0 799.6 163.2" style="enable-background:new 0 0 799.6 163.2;" xml:space="preserve">
 <style type="text/css">
  .st0{fill-rule:evenodd;clip-rule:evenodd;fill:#FFFFFF;}
	.st1{fill:#FFFFFF;}
 </style>
 <metadata>
  <sfw xmlns="ns_sfw;">
   <slices>
   </slices>
   <sliceSourceBounds bottomLeftOrigin="true" height="163.2" width="799.6" x="0.4" y="0.4">
   </sliceSourceBounds>
  </sfw>
 </metadata>
 <g>
  <path class="st0" d="M219.2,99.4c5.2-3.9,5.9-1.7,10.3,2.7c2.2,2.2,8.2,6,4.3,9.2c-8.2,6.7-15.6,9.7-26,9.7
		c-23.6-0.1-40.3-17.8-39-41.2c0.6-10.5,4.7-20.4,12.9-27.2c7.5-6.3,16.8-9.1,26.6-8.9c4.8,0,9.6,0.9,14,2.8c3,1.1,5.8,2.6,8.4,4.5
		c5.2,4,2.8,6.3-1.3,10.4c-0.9,0.9-1.8,1.8-2.6,2.8c-2.1,2.1-3.5,3.6-6.2,1.6c-5.3-3.7-12-5.7-18.3-4c-20.4,5.2-19.5,41.5,5.5,41.6
		C211.9,103.2,215.9,101.9,219.2,99.4z M786.3,121.4c-3.4,0-6.2-2.7-6.2-6.2c0,0,0,0,0-0.1l0.3-80.4c0-3.4,2.7-6.2,6.2-6.2
		c0,0,0,0,0.1,0h6.7c3.4,0,6.2,2.8,6.2,6.2c0,0,0,0,0,0.1l-0.3,80.4c0,3.4-2.7,6.2-6.2,6.2c0,0,0,0-0.1,0H786.3z M751.3,112
		c-7.3,6.8-14.2,10.4-24.4,10.4c-20.7-0.1-30.7-17.3-30.7-36.5l0.1-32.7c0-3.4,2.8-6.2,6.2-6.2c0,0,0,0,0.1,0h6.7
		c3.4,0,6.2,2.7,6.2,6.2c0,0,0,0,0,0.1L715.4,86c0,10.7,5.8,19.1,17.1,19.1s18.2-9.4,18.3-20V73.3c-0.1-0.5-0.1-0.9-0.1-1.4
		l0.1-18.6c0-3.4,2.7-6.2,6.2-6.2c0,0,0,0,0.1,0h6.6c3.4,0,6.2,2.7,6.2,6.2c0,0,0,0,0,0.1l-0.2,61.8c0,3.4-2.8,6.1-6.2,6.1h-5.7
		c-3.3-0.1-6-2.8-6.1-6.1L751.3,112z M671.7,47.1h12.9c3.4,0,6.2,2.9,6.1,6.3c0,0,0,0,0,0.1v4.3c0,3.4-2.8,6.2-6.2,6.2h-12.9
		l-0.2,50.8c0,3.4-2.7,6.2-6.2,6.2c0,0,0,0-0.1,0h-6.7c-3.4,0-6.2-2.8-6.2-6.2l0,0l0.2-70.3c0-15.3,8.8-27.4,24.4-28.8
		c0.5,0,0.8-0.1,1.3-0.1c0.9-0.1,1.8-0.1,2.8,0h6c3.4,0,6.2,2.9,6.1,6.3l0,0v3.9c0,3.4-2.8,6.2-6.2,6.2H682
		c-7.4,0-10.5,5.6-10.6,12.6L671.7,47.1z M625.3,46.9h14.2c3.4,0,6.1,2.8,6.1,6.2v4.3c0,3.4-2.8,6.1-6.2,6.1h-14.2l-0.1,31.1
		c0,6,2.9,9.4,8.9,9.4h2.9c3.4,0,6.1,2.8,6.1,6.2v4.3c0,3.4-2.8,6.1-6.2,6.1h-5.4c-1,0-2,0-3-0.1c-15.3-1-22.1-10.9-22.1-25.9
		c0.1-20.2,0.1-40.2,0.2-60.4c0-3.4,2.8-6.1,6.2-6.1l0,0h6.6c3.4,0,6.1,2.8,6.1,6.2L625.3,46.9L625.3,46.9z M420.3,46.1h14.2
		c3.4,0,6.1,2.8,6.1,6.2v4.3c0,3.4-2.8,6.1-6.2,6.1h-14.2v31.1c0,6,2.9,9.4,8.9,9.4h2.9c3.4,0,6.1,2.8,6.1,6.2l0,0v4.3
		c0,3.4-2.8,6.1-6.2,6.1h-4.3c-16.7-0.1-26.4-7.3-26.4-26c0.1-20.2,0.1-40.2,0.2-60.4c0-3.4,2.8-6.1,6.2-6.1h6.6
		c3.4,0,6.1,2.8,6.1,6.2L420.3,46.1z M337.1,54.9c6.8-6.3,14.2-10.4,23.7-10.4c20.8,0.1,31.5,17,31.4,36.5l-0.1,32.7
		c0,3.4-2.8,6.2-6.2,6.2l0,0h-6.7c-3.4,0-6.2-2.8-6.2-6.2l0,0l0.1-32.5c0-10.7-5.8-19.1-17.1-19.1s-18.2,9.3-18.3,19.9l-0.1,31.7
		c0,3.4-2.8,6.1-6.2,6.1h-6.6c-3.4,0-6.1-2.8-6.1-6.2c0.1-19.7,0.1-39.5,0.2-59.2v-2.6c0-3.4,2.8-6.2,6.2-6.2h5.6
		c3.3,0.1,6,2.8,6.1,6.1L337.1,54.9z M542.5,55.7c6.8-6.3,14.2-10.4,23.7-10.4c20.8,0.1,31.5,17.1,31.3,36.5v32.8
		c0,3.4-2.7,6.2-6.2,6.2c0,0,0,0-0.1,0h-6.7c-3.4,0-6.2-2.8-6.2-6.2l0,0l0.1-32.5c0-10.7-5.8-19.1-17.1-19.1s-18.2,9.3-18.3,19.9
		l-0.2,31.7c0,3.4-2.8,6.1-6.2,6.1H530c-3.4,0-6.1-2.8-6.1-6.2l0.2-61.9c0-3.4,2.8-6.2,6.2-6.2l0,0h5.7c3.3,0.1,6,2.8,6.1,6.2
		L542.5,55.7z M274.4,43.9C251.9,43.8,236,60,235.9,82.4c-0.1,22.6,15.6,38.6,38.3,38.7s38.6-15.8,38.7-38.5
		C313,60.4,296.7,44,274.4,43.9z M461,90.1c1.6,10.4,11.5,14.6,21.2,14.8c4.9,0,9.6-1.1,14.1-3.1c0.7-0.3,1.4-0.6,2.1-1
		c2.3-1.3,4.4-2.1,6.5,0c1.1,1.2,2.2,2.3,3.3,3.3c1.1,1,2.1,2.2,3,3.3c3.1,3.9,0.9,4.8-2.6,7.3c-7.6,5.1-17.5,7.6-26.6,7.6
		c-24.4-0.1-40.6-15-40.6-39.6c0.1-23.3,16.2-38.7,39.5-38.6c23.8,0.1,37.2,14.1,37.6,37.8c0.1,6.4,0.3,8.5-6.3,8.5L461,90.1z
		 M274.4,61.3c11.6,0,19.4,10.2,19.4,21.3c0,11.6-7.3,21-19.5,21s-19.4-9.4-19.4-21.1S262.3,61.3,274.4,61.3z M461.5,74.1l38.3,0.1
		c-1.4-9.6-9.3-13.4-18.4-13.4S464.3,65.1,461.5,74.1z">
  </path>
  <g>
   <g>
    <path class="st1" d="M38.6,145.9c-5.6,0-10.8-2.1-14.7-6C-7.9,108.1-8,56.2,23.7,24.3c0.2-0.2,0.4-0.4,0.5-0.6
				c0.4-0.5,0.9-1,1.5-1.5c8.8-7.5,22-6.5,29.5,2.2c7.5,8.7,6.6,21.9-2.1,29.4c-7.3,7.4-11.5,17.5-11.5,27.9
				c-0.2,10,3.4,19.7,10.1,26.9h0.6l1.1,1.1c4,3.9,6.3,9.2,6.3,14.8c0.1,5.6-2.1,11-6,15s-9.2,6.3-14.8,6.3
				C38.8,145.9,38.7,145.9,38.6,145.9z M39.4,24.8c-3.1,0-6.2,1.1-8.8,3.3l-0.1,0.1c-0.2,0.2-0.5,0.4-0.7,0.8
				c-0.2,0.2-0.5,0.5-0.7,0.7c-28.8,29-28.7,76,0.1,104.9c2.5,2.5,6,3.8,9.6,3.8c3.6,0,7-1.5,9.5-4.1c2.5-2.6,3.9-6,3.9-9.6
				c0-3.1-1.1-6.1-3.1-8.4h-0.5l-1.1-1.1c-8.8-8.8-13.6-20.9-13.3-33.4c0-12.3,5-24.4,13.8-33.2l0.2-0.2c5.6-4.8,6.2-13.3,1.4-18.9
				C46.9,26.4,43.2,24.8,39.4,24.8z">
    </path>
   </g>
   <g>
    <path class="st1" d="M82.2,163.2c-21.8,0-42.3-8.5-57.7-23.9c-0.2-0.2-0.4-0.4-0.5-0.5c-0.5-0.4-1-0.9-1.5-1.5
				c-7.5-8.8-6.5-22,2.2-29.5c8.7-7.5,21.9-6.6,29.4,2c15.4,15.1,40.5,15.1,55.9-0.1l0.3-0.3l2.7-2.1c3.2-3.2,7.1-4.9,11.3-5
				c5.3,0,10.8,2.6,15.6,7.4c3.9,3.9,6.1,9.2,6.1,14.8c0,5.6-2.2,10.8-6.1,14.8C124.5,154.8,104,163.2,82.2,163.2z M38.4,110.3
				c-3.1,0-6.2,1.1-8.8,3.3c-5.6,4.8-6.2,13.3-1.4,18.9l0.1,0.1c0.2,0.2,0.4,0.5,0.8,0.7c0.2,0.2,0.5,0.5,0.7,0.7
				c14,14,32.6,21.7,52.4,21.7s38.4-7.7,52.4-21.7c2.5-2.5,3.9-5.9,3.9-9.4c0-3.6-1.4-6.9-3.9-9.4c-3.3-3.3-6.9-5.2-10.1-5.2
				c0,0-0.1,0-0.1,0c-2.3,0-4.2,1-6.1,2.9l-0.4,0.4l-2.7,2.1c-18.4,17.9-48.1,17.9-66.4-0.2l-0.2-0.2
				C45.9,111.9,42.2,110.3,38.4,110.3z M125.6,60.5c-5.8,0-11.6-2.4-15.7-7.1c-7.5-7.5-17.5-11.6-28.1-11.6
				c-10.6,0-20.6,4.1-28.2,11.7l-0.4,0.4l-1.1,0.6c-7.6,5.2-17.7,4.9-24.9-0.8c-9-7.2-10.6-20.4-3.4-29.4l0.3-0.3
				C39.5,8.5,60,0,81.8,0c21.8,0,42.3,8.5,57.7,23.9c0.2,0.2,0.4,0.4,0.5,0.5c0.5,0.4,1,0.9,1.5,1.5c7.5,8.8,6.5,22-2.2,29.5
				C135.4,58.8,130.5,60.5,125.6,60.5z M81.8,34.3c12.1,0,24.3,4.6,33.5,13.9l0.2,0.2c4.8,5.6,13.3,6.2,18.9,1.4
				c5.6-4.8,6.2-13.3,1.4-18.9l-0.1-0.1c-0.2-0.2-0.4-0.5-0.8-0.7c-0.2-0.2-0.5-0.5-0.7-0.7c-14-14-32.6-21.7-52.4-21.7
				c-19.7,0-38.2,7.6-52.2,21.5c-4.4,5.7-3.4,14.1,2.3,18.6c4.6,3.6,11,3.8,15.8,0.6l0-0.1l1-0.6l0,0.1C58,38.7,69.9,34.3,81.8,34.3
				z">
    </path>
   </g>
   <g>
    <path class="st1" d="M38.9,144c-5,0-10-1.9-13.8-5.7c-7.6-7.6-7.6-20,0-27.5c7.7-7.6,20.1-7.8,28.2-0.5l0.3,0.3
				c7.4,8.2,7,20.4-0.9,27.8C48.8,142.1,43.9,144,38.9,144z M39.4,112.5c-3.3,0-6.5,1.2-9,3.7c-2.2,2.2-3.5,5.2-3.5,8.4
				c0,3.2,1.3,6.1,3.5,8.4c2.3,2.3,5.3,3.5,8.4,3.5c3.2,0,6.1-1.3,8.4-3.5l0.1-0.1c4.9-4.6,5.1-12.1,0.7-17.1
				C45.6,113.6,42.5,112.5,39.4,112.5z M38.8,59.6c-5.2,0-10.5-2-14.5-5.9l-0.2-0.2c-4-3.8-6.2-9.1-6.3-14.7
				c-0.1-5.6,2.1-10.9,6-14.8c3.8-4,9.1-6.2,14.7-6.3c5.6,0,10.9,2.1,14.8,6c8.2,8.2,8.3,21.5,0.3,29.6l-0.3,0.3
				C49.4,57.6,44.1,59.6,38.8,59.6z M38.8,25.3c0,0-0.1,0-0.1,0c-3.6,0-6.9,1.5-9.4,4c-2.6,2.6-3.9,5.9-3.9,9.5c0,3.6,1.5,6.9,4,9.4
				l0.2,0.2c5.1,5,13.4,5,18.5-0.1l0.3-0.3c5.1-5.1,5-13.6-0.3-18.9C45.6,26.7,42.3,25.3,38.8,25.3z">
    </path>
   </g>
  </g>
 </g>
</svg>