<svg version="1.1" id="Layer_1" xmlns:x="ns_extend;" xmlns:i="ns_ai;" xmlns:graph="ns_graphs;" xmlns="http://www.w3.org/2000/svg" xmlns:xlink="http://www.w3.org/1999/xlink" x="0px" y="0px" viewBox="0 0 480.2 110.7" style="enable-background:new 0 0 480.2 110.7;" xml:space="preserve">
 <style type="text/css">
  .st0{fill:#FFFFFF;}
 </style>
 <metadata>
  <sfw xmlns="ns_sfw;">
   <slices>
   </slices>
   <sliceSourceBounds bottomLeftOrigin="true" height="110.7" width="480.2" x="0" y="-0.1">
   </sliceSourceBounds>
  </sfw>
 </metadata>
 <g>
  <path class="st0" d="M42.3,26.6c0.2,0.4,0.4,0.9,0.4,1.4c-0.1,0.8-0.6,1.6-1.4,1.9l-7.2,5.1c-0.4,0.3-0.9,0.4-1.4,0.4
		c-1.1,0-1.9-1-2.3-1.6c-1.8-2.5-4-4.1-7.2-4.1c-4.7,0.2-8.4,4.1-8.3,8.8c0.2,4.5,3.8,8.1,8.3,8.3c3.3,0,5.5-1.7,7.2-4.1
		c0.4-0.6,1.2-1.6,2.3-1.6c0.5,0,1,0.1,1.4,0.4l7.2,5c0.8,0.4,1.3,1.1,1.4,1.9c0,0.5-0.2,0.9-0.4,1.4c-3.2,6.7-11.6,10.5-20,10.5
		C9,60.3,0,50.4,0,38.4C0,25.9,9.8,16,22.7,16C30.9,16,39.1,19.9,42.3,26.6">
  </path>
  <path class="st0" d="M77,66.8c-1.8,5.9-4.4,8.9-7.6,11c-3.3,2-7,3-10.8,3c-3.4,0-6.8-0.8-9.8-2.5c-1.1-0.6-2.1-1.3-3-2.2
		c-0.5-0.5-0.8-1.1-0.8-1.8c0-0.6,0.3-1.3,0.7-1.8l4.6-6.7c0.4-0.6,1-0.9,1.7-0.9c0.8,0,1.6,0.3,2.2,0.8c1.4,1,3.1,1.7,4.8,1.8
		c2.2,0.1,4.1-1.2,4.8-3.3l1.6-5.1h-7.7c-1.2,0-2.2-0.8-2.5-2L44.4,20.7c-0.2-0.6-0.3-1.2-0.3-1.8c0-0.8,0.6-1.5,1.8-1.5h12.5
		c1.1,0,1.8,1,2,2l6.9,28.7h1.1l7.2-28.7c0.2-1,0.9-2,2-2h11.7c1.2,0,1.8,0.7,1.8,1.5c0,0.6-0.1,1.2-0.3,1.8L77,66.8z">
  </path>
  <path class="st0" d="M117.1,46.8c4.7,0.1,8.7-3.7,8.8-8.4c0.1-4.7-3.7-8.7-8.4-8.8c-4.7-0.1-8.7,3.7-8.8,8.4c0,0.1,0,0.1,0,0.2
		C108.6,42.8,112.3,46.7,117.1,46.8C117,46.8,117.1,46.8,117.1,46.8 M108.6,20.1c2.2-2.5,6.3-4.1,11.1-4.1c10.9,0,20.5,8.3,20.5,22
		s-9.6,22.3-20.6,22.3c-3.8,0-8.8-1-11-3.9v0.7c0,1.1-0.8,1.9-1.9,1.9c0,0,0,0-0.1,0H96.1c-1,0-1.9-0.8-1.9-1.9c0,0,0,0,0-0.1V1.9
		C94.1,0.9,95,0,96,0c0,0,0,0,0.1,0h10.5c1.1,0,1.9,0.9,1.9,1.9L108.6,20.1z">
  </path>
  <path class="st0" d="M157.9,33.2h13.8c-0.6-3.4-3.7-5.2-6.9-5.2S158.5,29.8,157.9,33.2 M172.9,43.8c0.4-0.6,1.2-1.6,2.3-1.6
		c0.5,0,1,0.1,1.4,0.4l7.2,4.5c0.8,0.3,1.3,1,1.4,1.9c0,0.5-0.2,0.9-0.4,1.4c-3,6.4-11,10-19.5,10c-13.7,0-22.3-9.7-22.3-21.8
		c0-12.5,9.2-22.4,22.1-22.4c13.3,0,20.9,10.6,20.9,20.8v1.8c0,1.2-0.4,2.4-2.3,2.4h-26c0.2,3.8,3.2,6.8,7.8,6.8
		C168.4,47.8,171.2,46.3,172.9,43.8">
  </path>
  <path class="st0" d="M204.5,57.2c-0.1,1-1,1.8-2,1.8h-10.6c-1.1,0-1.9-0.8-1.9-1.9c0,0,0,0,0-0.1V19.2c0-1.1,0.8-1.9,1.9-1.9
		c0,0,0,0,0.1,0h10c1,0,1.9,0.8,2,1.8v2.4c2.5-3.5,7.1-4.9,10.4-4.9h2.4c0.9,0,2.3,0.3,2.3,2.5v10.4c0.1,1.3-0.9,2.5-2.2,2.6
		c-0.1,0-0.3,0-0.4,0h-4.1c-5.6,0-7.8,1.4-7.8,6.2L204.5,57.2z">
  </path>
  <path class="st0" d="M241.6,16c8.6,0,13.8,3,16.1,4.7c1.2,0.9,1.4,1.4,1.4,1.9c-0.1,0.6-0.3,1.2-0.7,1.8l-3.5,5.9
		c-0.3,0.5-0.9,0.9-1.5,0.8c-1-0.1-2-0.4-2.8-1c-3.1-1.6-6.4-2.4-9.9-2.6c-2.5,0-4.9,0.8-4.9,2.7c0,0.9,0.5,1.7,2.1,2.2
		c5.7,1.9,22,0.4,22,13.7c0,7.8-5.7,14.2-19.4,14.2c-8.2,0-14.5-2.3-18.3-5.2c-1.2-0.9-1.5-1.4-1.5-2.5s0.3-1.4,1.1-2.4l3.9-5.2
		c0.3-0.5,0.9-0.7,1.4-0.7c1.4,0,2,1,4,2.1c2.8,1.7,6,2.6,9.3,2.6c2.7,0,5-0.7,5-2.4c0-5.2-23.3,0.2-23.3-15.9
		C222.2,21.6,229.8,16,241.6,16">
  </path>
  <path class="st0" d="M294.1,38.2c0-4.7-3.9-8.4-8.5-8.3c-4.7,0-8.4,3.9-8.3,8.5c0,4.6,3.8,8.3,8.4,8.3
		C290.3,46.7,294.1,42.9,294.1,38.2 M308.8,38.3c0,12.2-10.3,22-23.1,22s-23.1-9.8-23.1-22S272.8,16,285.6,16S308.8,26,308.8,38.3">
  </path>
  <path class="st0" d="M326.9,39.2c0,5.2,2.2,8.6,7.4,8.6c4.5,0,7.9-2.6,7.9-7.8V19c0.1-1,1-1.8,2-1.8h10.6c1.1,0,1.9,0.8,1.9,1.9
		c0,0,0,0,0,0.1v37.8c0,1-0.8,1.9-1.9,1.9c0,0-0.1,0-0.1,0h-10.6c-1,0-1.9-0.8-2-1.8v-1.5c-2.6,2.5-5.7,4.5-11.7,4.5
		c-11.6,0-18.2-7.5-18.2-18.8V19.1c0.1-1,1-1.8,2-1.8h10.5c1,0,1.9,0.8,2,1.8L326.9,39.2z">
  </path>
  <path class="st0" d="M376.8,57.2c-0.1,1-1,1.8-2,1.8h-10.6c-1,0.1-1.9-0.7-2-1.8c0,0,0-0.1,0-0.1V19.2c0-1,0.8-1.9,1.9-1.9
		c0,0,0.1,0,0.1,0h10c1,0,1.9,0.8,2,1.8v2.4c2.5-3.5,7.1-4.9,10.5-4.9h2.4c0.9,0,2.3,0.3,2.3,2.5v10.4c0.1,1.3-0.9,2.5-2.2,2.6
		c-0.1,0-0.3,0-0.4,0h-4.1c-5.6,0-7.8,1.4-7.8,6.2L376.8,57.2z">
  </path>
  <path class="st0" d="M435.3,26.6c0.2,0.4,0.4,0.9,0.4,1.4c-0.1,0.8-0.6,1.6-1.3,1.9l-7.2,5.1c-0.4,0.3-0.9,0.4-1.4,0.4
		c-1.1,0-1.8-1-2.3-1.6c-1.8-2.5-4-4.1-7.2-4.1c-4.7,0.2-8.4,4.1-8.3,8.8c0.2,4.5,3.8,8.1,8.3,8.3c3.3,0,5.5-1.7,7.2-4.1
		c0.4-0.6,1.2-1.6,2.3-1.6c0.5,0,1,0.1,1.4,0.4l7.2,5c0.8,0.4,1.3,1.1,1.3,1.9c0,0.5-0.2,0.9-0.4,1.4c-3.2,6.7-11.6,10.5-20,10.5
		c-13.3,0-22.3-9.9-22.3-21.9c0-12.5,9.8-22.3,22.8-22.3C423.8,16,432,19.9,435.3,26.6">
  </path>
  <path class="st0" d="M452.2,33.2H466c-0.6-3.4-3.7-5.2-6.9-5.2S452.8,29.8,452.2,33.2 M467.2,43.8c0.4-0.6,1.2-1.6,2.3-1.6
		c0.5,0,1,0.1,1.4,0.4l7.2,4.5c0.8,0.3,1.3,1,1.3,1.9c0,0.5-0.2,0.9-0.4,1.4c-3,6.4-11,10-19.5,10c-13.7,0-22.3-9.7-22.3-21.8
		c0-12.5,9.2-22.4,22.1-22.4c13.3,0,20.9,10.6,20.9,20.8v1.8c0,1.2-0.4,2.4-2.3,2.4h-26c0.2,3.8,3.2,6.8,7.8,6.8
		C462.7,47.8,465.6,46.3,467.2,43.8">
  </path>
  <path class="st0" d="M246.5,109.8c-0.1,0.3-0.2,0.4-0.5,0.4h-3.9c-0.3,0-0.4-0.1-0.5-0.4l-10.3-28.7c-0.1-0.3,0-0.4,0.3-0.4h3.3
		c0.3,0,0.4,0.1,0.5,0.4l8.6,24.9l8.6-24.9c0.1-0.3,0.2-0.4,0.5-0.4h3.3c0.3,0,0.4,0.1,0.3,0.4L246.5,109.8z">
  </path>
  <path class="st0" d="M261,89.5c0-0.3,0.1-0.4,0.4-0.4h2.5c0.3,0,0.4,0.1,0.4,0.4v20.4c0,0.3-0.1,0.4-0.4,0.4h-2.5
		c-0.3,0-0.4-0.1-0.4-0.4V89.5z M260.4,81.1c0-0.3,0.1-0.4,0.4-0.4h3.6c0.3,0,0.4,0.1,0.4,0.4v3.7c0,0.3-0.1,0.4-0.4,0.4h-3.6
		c-0.3,0-0.4-0.1-0.4-0.4V81.1z">
  </path>
  <path class="st0" d="M277.5,110.7c-4.9,0-8.9-2.9-8.9-6.9c0-0.2,0.1-0.4,0.3-0.4c0,0,0.1,0,0.1,0h2.7c0.3,0,0.4,0.1,0.4,0.4
		c0.3,2.5,2.3,3.8,5.5,3.8c2.8,0,4.9-0.9,4.9-3.1s-1.9-3-6.2-3.6c-5.1-0.8-7.2-2.5-7.2-6.2c0-3.9,3.5-6,8-6c4.7,0,7.6,2.4,8.1,6.1
		c0,0.2-0.1,0.4-0.3,0.4c0,0-0.1,0-0.1,0h-2.4c-0.3,0-0.3-0.1-0.4-0.4c-0.6-2.1-2.8-3-5.1-3c-2.7,0-4.6,0.9-4.6,2.8
		c0,2.1,1.7,2.8,6,3.5c4.1,0.7,7.6,1.9,7.6,5.9C286,108.3,282.5,110.7,277.5,110.7">
  </path>
  <path class="st0" d="M298.8,100c-3,0-5.3,1.1-5.3,3.7c0,2.5,1.7,3.8,4.5,3.8c3.4,0.2,6.4-2.5,6.6-5.9c0-0.2,0-0.5,0-0.7
		C302.7,100.3,300.8,100,298.8,100 M291.1,95.4c-0.1,0-0.3-0.1-0.3-0.2c0,0,0,0,0,0c0-0.1,0-0.3,0-0.4c0.9-3.2,3.6-6,8.5-6
		s8.4,3,8.4,7.4v10.2c-0.1,1.3,0.1,2.5,0.7,3.6c0,0.1,0.1,0.1,0.1,0.2s-0.1,0.2-0.3,0.2h-3.3c-0.3,0-0.4-0.1-0.4-0.4v-2.2
		c-1.7,2-4.3,3.2-6.9,3c-3.7,0-7.6-2.2-7.6-6.7c0-4.7,3.8-7.1,8.6-7.1c2,0,4.1,0.3,6,0.9v-1.2c0-3.2-1.9-4.9-5.1-4.9
		c-2.2-0.1-4.2,1.2-5,3.2c-0.1,0.3-0.3,0.4-0.6,0.4H291.1z">
  </path>
  <path class="st0" d="M334.1,80.3c6.4,0,10,3.9,10.1,8.2c0,0.3-0.1,0.4-0.4,0.4h-2.7c-0.3,0-0.4-0.1-0.4-0.4c-0.2-2.9-3-4.9-6.6-4.9
		s-6.4,1.6-6.4,4.4c0,3.2,3.4,4.4,7.8,5.5c5.4,1.4,9.7,3.4,9.7,8.1c0,6.1-4.5,9-10.9,9c-6.1,0-10.9-3.8-10.9-9.4
		c0-0.3,0.1-0.4,0.4-0.4h2.7c0.3,0,0.4,0.1,0.4,0.4c0.1,3.4,3,6,7.4,6c4.6,0,7.3-1.7,7.3-5.5c0-3-3.6-4.1-7.7-5.1
		c-5.8-1.5-9.8-3.5-9.8-8.5C324.2,82.9,328.9,80.2,334.1,80.3">
  </path>
  <path class="st0" d="M359.8,107.6c4.3,0,7.3-3.2,7.3-7.9s-3-7.9-7.3-7.9s-7.3,3.2-7.3,7.9S355.4,107.6,359.8,107.6 M359.8,88.6
		c6.1,0,10.8,4.3,10.8,11s-4.7,11-10.8,11s-10.8-4.3-10.8-11S353.7,88.6,359.8,88.6">
  </path>
  <path class="st0" d="M375.8,80.7h2.5c0.2,0,0.4,0.2,0.4,0.4v28.7c0,0.2-0.2,0.4-0.4,0.4h-2.5c-0.2,0-0.4-0.2-0.4-0.4V81.1
		C375.4,80.9,375.6,80.7,375.8,80.7z">
  </path>
  <path class="st0" d="M402,109.8c0,0.3-0.1,0.4-0.4,0.4h-2.4c-0.3,0-0.4-0.1-0.4-0.4v-2.4c-1.7,2.1-4.3,3.3-7,3.2
		c-4.4,0-7.3-2.7-7.3-7.7V89.5c0-0.3,0.1-0.4,0.4-0.4h2.5c0.3,0,0.4,0.1,0.4,0.4v13c0,3.4,1.8,5.1,4.8,5.1c3.5,0,6.2-2.6,6.2-7.7
		V89.5c0-0.3,0.1-0.4,0.4-0.4h2.5c0.3,0,0.4,0.1,0.4,0.4L402,109.8z">
  </path>
  <path class="st0" d="M421.2,89.1c0.3,0,0.4,0.1,0.4,0.4v2.3c0,0.3-0.1,0.4-0.4,0.4h-7V104c0,2.4,1.1,3.6,3.3,3.6
		c1.4,0,2.7-0.2,4-0.6c0.1,0,0.2-0.1,0.3-0.1c0.2,0,0.3,0.2,0.3,0.4v2c0,0.4,0,0.6-0.3,0.7c-1.5,0.5-3,0.7-4.5,0.7
		c-4,0-6.4-2.4-6.4-6.4V92.2h-3.8c-0.3,0-0.4-0.1-0.4-0.4v-2.3c0-0.3,0.1-0.4,0.4-0.4h3.8V83c0-0.3,0.1-0.4,0.4-0.4h2.5
		c0.3,0,0.4,0.1,0.4,0.4v6.1H421.2z">
  </path>
  <path class="st0" d="M427,89.5c0-0.3,0.1-0.4,0.4-0.4h2.5c0.3,0,0.4,0.1,0.4,0.4v20.4c0,0.3-0.1,0.4-0.4,0.4h-2.5
		c-0.3,0-0.4-0.1-0.4-0.4V89.5z M426.4,81.1c0-0.3,0.1-0.4,0.4-0.4h3.6c0.3,0,0.4,0.1,0.4,0.4v3.7c0,0.3-0.1,0.4-0.4,0.4h-3.6
		c-0.3,0-0.4-0.1-0.4-0.4V81.1z">
  </path>
  <path class="st0" d="M445.7,107.6c4.3,0,7.3-3.2,7.3-7.9s-3-7.9-7.3-7.9s-7.3,3.2-7.3,7.9S441.4,107.6,445.7,107.6 M445.7,88.6
		c6.1,0,10.8,4.3,10.8,11s-4.7,11-10.8,11s-10.8-4.3-10.8-11S439.6,88.6,445.7,88.6">
  </path>
  <path class="st0" d="M460.7,89.5c0-0.3,0.1-0.4,0.4-0.4h2.5c0.3,0,0.4,0.1,0.4,0.4v2.4c1.7-2.1,4.3-3.3,7-3.3
		c4.4,0,7.3,2.8,7.3,7.7v13.5c0,0.3-0.1,0.4-0.4,0.4h-2.5c-0.3,0-0.4-0.1-0.4-0.4v-13c0-3.4-1.8-5.1-4.8-5.1c-3.5,0-6.3,2.6-6.3,7.7
		v10.4c0,0.3-0.1,0.4-0.4,0.4h-2.4c-0.3,0-0.4-0.1-0.4-0.4L460.7,89.5z">
  </path>
  <path class="st0" d="M204.3,98.3h9.6L209.1,85L204.3,98.3z M215.1,101.7H203l-2.9,8.2c-0.1,0.3-0.2,0.4-0.5,0.4h-2.8
		c-0.3,0-0.5-0.1-0.5-0.4c0-0.1,0-0.2,0-0.2l10.5-28.5c0.1-0.3,0.1-0.4,0.4-0.4h3.6c0.3,0,0.3,0.1,0.4,0.4l10.5,28.5
		c0,0.1,0,0.2,0,0.2c0,0.3-0.2,0.4-0.5,0.4h-2.8c-0.3,0-0.4-0.1-0.5-0.4L215.1,101.7z">
  </path>
 </g>
</svg>