<?xml version="1.0" encoding="UTF-8"?>
<svg version="1.1" xmlns="http://www.w3.org/2000/svg" width="500" height="500">
<path d="M0 0 C0.77988281 0.72574219 1.55976563 1.45148438 2.36328125 2.19921875 C3.02972656 2.81152344 3.69617188 3.42382812 4.3828125 4.0546875 C33.37137083 31.74436949 50.57412327 73.5356917 51.56640625 113.34375 C52.1395444 161.88637501 35.81618756 204.51025331 2.01953125 239.61328125 C-3.4129894 245.07197571 -9.4261016 249.66938755 -15.63671875 254.19921875 C-16.45140625 254.81925781 -17.26609375 255.43929688 -18.10546875 256.078125 C-45.69655683 276.44072596 -80.24144473 286.7022306 -114.32421875 286.51171875 C-115.02326324 286.5095636 -115.72230774 286.50740845 -116.4425354 286.50518799 C-141.11369786 286.38360843 -164.43053569 281.08179208 -186.63671875 270.19921875 C-187.32185547 269.87083008 -188.00699219 269.54244141 -188.71289062 269.20410156 C-204.04282677 261.79252087 -217.35380332 251.97921166 -229.63671875 240.19921875 C-230.1270459 239.74530762 -230.61737305 239.29139648 -231.12255859 238.82373047 C-261.62987655 210.54842656 -278.60579744 168.98745416 -280.76269531 127.79321289 C-282.25900597 81.42178803 -265.66997592 38.57339889 -234.09375 4.79882812 C-171.02788836 -61.41226191 -66.15080862 -60.59537524 0 0 Z " fill="#E36F3A" transform="translate(364.63671875,129.80078125)"/>
<path d="M0 0 C46.17473685 -0.91063866 87.3258905 16.96644464 120.8046875 48.12109375 C121.47113281 48.73339844 122.13757813 49.34570312 122.82421875 49.9765625 C136.81820819 63.34353001 147.22072112 80.22088398 155.5546875 97.55859375 C156.07615356 98.63234253 156.07615356 98.63234253 156.6081543 99.7277832 C158.92866402 104.74916419 158.92866402 104.74916419 157.8046875 108.12109375 C157.00224609 107.64929688 157.00224609 107.64929688 156.18359375 107.16796875 C153.31751705 105.90670675 150.85855824 105.63368757 147.7421875 105.37109375 C146.69933594 105.273125 145.65648437 105.17515625 144.58203125 105.07421875 C141.58905099 104.87443242 141.58905099 104.87443242 138.8046875 107.12109375 C137.969375 105.91453125 137.969375 105.91453125 137.1171875 104.68359375 C134.58604263 101.87881159 133.47889616 101.4272778 129.8046875 101.12109375 C127.8246875 103.76109375 125.8446875 106.40109375 123.8046875 109.12109375 C119.8046875 108.12109375 119.8046875 108.12109375 116.4296875 106.05859375 C112.99157586 104.08040212 110.82527969 103.30056473 106.8046875 104.12109375 C102.88617661 106.4184508 99.54822289 109.49112428 96.09375 112.41796875 C88.97202743 118.38850877 84.00198201 121.40482749 74.8984375 123.453125 C72.48295505 124.22373601 70.5877792 125.35758318 68.4296875 126.68359375 C64.96067708 128.7722021 62.59252068 129.36170355 58.5546875 129.43359375 C54.88705103 129.5864032 54.88705103 129.5864032 52.16796875 131.87890625 C50.84572376 134.01813429 50.84572376 134.01813429 49.83984375 136.2109375 C48.8046875 138.12109375 48.8046875 138.12109375 45.8046875 140.12109375 C42.01124275 139.87635538 40.26888273 137.8493099 37.8046875 135.12109375 C33.73836489 136.42812602 32.89165824 138.83401796 31 142.4609375 C29.03125374 145.19530731 25.8492389 145.83917737 22.8046875 147.12109375 C21.62462337 148.89095025 21.62462337 148.89095025 20.6171875 150.87109375 C19.44921875 152.71875 19.44921875 152.71875 17.8046875 154.12109375 C12.42963415 154.83326958 7.57029546 154.13537917 2.8671875 151.43359375 C2.1865625 150.67046875 1.5059375 149.90734375 0.8046875 149.12109375 C0.0209375 148.25484375 -0.7628125 147.38859375 -1.5703125 146.49609375 C-3.01149311 144.73075701 -4.29022839 142.97007831 -5.50390625 141.0390625 C-9.40160795 134.93435049 -14.0622064 130.11088204 -19.3203125 125.18359375 C-20.01358643 124.53269775 -20.70686035 123.88180176 -21.42114258 123.21118164 C-27.50695925 117.23274826 -27.50695925 117.23274826 -35.3828125 115.12109375 C-39.57612556 116.22097914 -42.92072234 117.91861348 -46.66796875 120.0625 C-49.8002739 121.37448562 -51.82069276 121.50799283 -55.1953125 121.12109375 C-58.1953125 119.765625 -58.1953125 119.765625 -61.1953125 117.93359375 C-62.2471875 117.29292969 -63.2990625 116.65226562 -64.3828125 115.9921875 C-67.1953125 114.12109375 -67.1953125 114.12109375 -70.1953125 111.49609375 C-74.70431967 107.92646308 -79.87170249 106.19315753 -85.1953125 104.12109375 C-86.1853125 103.62609375 -86.1853125 103.62609375 -87.1953125 103.12109375 C-93.68323291 102.47315426 -98.66207878 104.47770795 -104.6328125 106.87109375 C-105.53580078 107.21914062 -106.43878906 107.5671875 -107.36914062 107.92578125 C-112.20354728 109.81613577 -116.85091213 111.85669058 -121.40771484 114.34667969 C-124.85079162 115.83827208 -127.4820612 115.60807753 -131.1953125 115.12109375 C-133.96522702 113.35842088 -135.8306617 111.55086076 -137.9453125 109.05859375 C-141.25520108 106.20841192 -145.04051159 105.29296067 -149.1953125 104.12109375 C-146.35044273 84.20700537 -128.33075953 64.31489036 -115.1953125 50.12109375 C-114.50050781 49.35539062 -113.80570313 48.5896875 -113.08984375 47.80078125 C-102.80308811 36.96569109 -90.08217739 28.52867795 -77.1953125 21.12109375 C-76.57495117 20.76418457 -75.95458984 20.40727539 -75.31542969 20.03955078 C-52.41898654 7.15046367 -26.09936247 0.98909564 0 0 Z " fill="#FEEFC1" transform="translate(246.1953125,83.87890625)"/>
<path d="M0 0 C2.30054796 3.45082194 2.85986645 6.56603935 3.5625 10.5625 C3.75102539 11.56120117 3.75102539 11.56120117 3.94335938 12.58007812 C12.0201764 56.93914127 1.17407152 101.94091837 -24.23730469 138.79443359 C-34.46541878 153.25703718 -46.72185173 165.58596224 -61 176 C-61.8146875 176.62003906 -62.629375 177.24007812 -63.46875 177.87890625 C-91.54939396 198.60280616 -126.25600566 208.54228604 -160.875 208.125 C-162.3528584 208.11493329 -163.83072358 208.10581407 -165.30859375 208.09765625 C-168.87254028 208.07597371 -172.43622415 208.04165536 -176 208 C-176 207.67 -176 207.34 -176 207 C-167.42 206.67 -158.84 206.34 -150 206 C-152.02125 205.05125 -154.0425 204.1025 -156.125 203.125 C-157.26195312 202.59132813 -158.39890625 202.05765625 -159.5703125 201.5078125 C-162.9093454 199.96322508 -162.9093454 199.96322508 -166.1640625 199.015625 C-169.15846132 197.94325077 -170.87078972 196.70453875 -173.25 194.625 C-177.87322581 190.85238473 -182.38902815 188.97569431 -188 187 C-188 183.7 -188 180.4 -188 177 C-186.02 177.66 -184.04 178.32 -182 179 C-182.33 178.01 -182.66 177.02 -183 176 C-181.68 176 -180.36 176 -179 176 C-179 175.34 -179 174.68 -179 174 C-180.98 173.01 -180.98 173.01 -183 172 C-182.01 171.67 -181.02 171.34 -180 171 C-180 170.34 -180 169.68 -180 169 C-181.98 168.01 -181.98 168.01 -184 167 C-183.01 167 -182.02 167 -181 167 C-181 166.34 -181 165.68 -181 165 C-181.99 164.67 -182.98 164.34 -184 164 C-184 163.01 -184 162.02 -184 161 C-184.66 160.01 -185.32 159.02 -186 158 C-185.34 158 -184.68 158 -184 158 C-184.515625 157.21625 -185.03125 156.4325 -185.5625 155.625 C-186.036875 154.75875 -186.51125 153.8925 -187 153 C-186.67 152.34 -186.34 151.68 -186 151 C-186.32832661 149.14045549 -186.32832661 149.14045549 -187 147 C-187.24878906 146.07703125 -187.49757813 145.1540625 -187.75390625 144.203125 C-188.02074219 143.22859375 -188.28757812 142.2540625 -188.5625 141.25 C-188.83191406 140.26515625 -189.10132813 139.2803125 -189.37890625 138.265625 C-189.58386719 137.51796875 -189.78882813 136.7703125 -190 136 C-190.66 136 -191.32 136 -192 136 C-192.07347656 137.03060547 -192.07347656 137.03060547 -192.1484375 138.08203125 C-192.22320312 138.98308594 -192.29796875 139.88414062 -192.375 140.8125 C-192.44460937 141.70582031 -192.51421875 142.59914063 -192.5859375 143.51953125 C-193 146 -193 146 -195 149 C-194.01 148.67 -193.02 148.34 -192 148 C-193.07401108 150.91517292 -193.77810176 152.77810176 -196 155 C-196 156.32 -196 157.64 -196 159 C-196.33 159.33 -196.66 159.66 -197 160 C-196.34 160.66 -195.68 161.32 -195 162 C-195.99 162.99 -196.98 163.98 -198 165 C-197.34 165.66 -196.68 166.32 -196 167 C-196.33 167.33 -196.66 167.66 -197 168 C-201.07279689 167.61577388 -204.46574118 167.12055529 -208 165 C-207.34 164.67 -206.68 164.34 -206 164 C-206.99 163.01 -207.98 162.02 -209 161 C-208.67 160.34 -208.34 159.68 -208 159 C-207.34 159.33 -206.68 159.66 -206 160 C-206 159.34 -206 158.68 -206 158 C-206.99 157.67 -207.98 157.34 -209 157 C-209.74513723 154.90006779 -210 153.22568901 -210 151 C-210.32090014 148.28953992 -210.65399589 145.58224841 -211 142.875 C-211.09539062 142.12089844 -211.19078125 141.36679687 -211.2890625 140.58984375 C-211.5249386 138.72642254 -211.76232621 136.86319277 -212 135 C-212.66 135 -213.32 135 -214 135 C-214.05607422 136.28583984 -214.05607422 136.28583984 -214.11328125 137.59765625 C-214.48904126 144.13293325 -215.13223077 149.1341084 -218 155 C-217.67 155.66 -217.34 156.32 -217 157 C-217.33 157.66 -217.66 158.32 -218 159 C-224.6037211 157.44790591 -230.80170258 154.71175512 -237 152 C-237 152.66 -237 153.32 -237 154 C-238.9375 153.3125 -238.9375 153.3125 -241 152 C-241.72909456 149.56968481 -242 147.52838375 -242 145 C-242.31802943 143.33034549 -242.64984951 141.66321482 -243 140 C-242.34 140 -241.68 140 -241 140 C-241.31453125 139.43539062 -241.6290625 138.87078125 -241.953125 138.2890625 C-243.04521989 135.90112368 -243.45436262 133.97486988 -243.75 131.375 C-243.84796875 130.59898437 -243.9459375 129.82296875 -244.046875 129.0234375 C-244 127 -244 127 -242 125 C-240.5393715 127.64738916 -240 128.89448334 -240 132 C-239.67 132.99 -239.34 133.98 -239 135 C-239.66 135 -240.32 135 -241 135 C-240.505 135.94875 -240.01 136.8975 -239.5 137.875 C-238 141 -238 141 -238 143 C-238.66 143.33 -239.32 143.66 -240 144 C-239.34 145.65 -238.68 147.3 -238 149 C-235.0745356 149.2236068 -235.0745356 149.2236068 -233 148 C-233.66 147.01 -234.32 146.02 -235 145 C-234.34 144.67 -233.68 144.34 -233 144 C-233.99 142.68 -234.98 141.36 -236 140 C-235.34 139.67 -234.68 139.34 -234 139 C-234.66 138.01 -235.32 137.02 -236 136 C-235.34 135.67 -234.68 135.34 -234 135 C-234.66 134.01 -235.32 133.02 -236 132 C-235.69075852 130.66087394 -235.35473671 129.32779921 -235 128 C-235.33957518 125.65289941 -235.33957518 125.65289941 -236 123.3125 C-236.37381554 121.88499192 -236.71795166 120.44843574 -237 119 C-236.67 118.67 -236.34 118.34 -236 118 C-236.66 116.35 -237.32 114.7 -238 113 C-234.8027791 109.19640962 -230.53579391 108.09817739 -226.0078125 106.37890625 C-222.8885515 104.94890738 -220.58115133 103.24303003 -218 101 C-218.33 100.34 -218.66 99.68 -219 99 C-218.01 99 -217.02 99 -216 99 C-216 98.01 -216 97.02 -216 96 C-204.615 95.01 -204.615 95.01 -193 94 C-193.33 93.34 -193.66 92.68 -194 92 C-195.134375 91.98582031 -196.26875 91.97164063 -197.4375 91.95703125 C-211.40275425 91.583695 -211.40275425 91.583695 -217.17578125 87.08203125 C-221.58920148 84.46422096 -227.39863324 85.65460717 -232.1875 86.6875 C-236.09129418 87.12125491 -238.47949963 85.63451803 -242 84 C-247.84661115 82.71807637 -253.78620425 82.70417905 -259.74804688 82.5703125 C-265.46114386 82.34969411 -270.79826985 81.50042143 -276 79 C-276.33 78.34 -276.66 77.68 -277 77 C-276.31069869 76.99576806 -275.62139738 76.99153612 -274.91120815 76.98717594 C-258.12651441 76.8837988 -241.34186386 76.77515059 -224.55724239 76.66066074 C-216.44027555 76.60542063 -208.3233043 76.55195398 -200.20629883 76.50268555 C-193.13019554 76.45973063 -186.05412341 76.41342455 -178.97806841 76.36312145 C-175.23257574 76.33661136 -171.48708888 76.31176103 -167.74155998 76.29092598 C-163.55674536 76.26758447 -159.3720175 76.23676019 -155.18725586 76.20532227 C-153.95007309 76.1995668 -152.71289032 76.19381134 -151.43821716 76.18788147 C-145.85095962 76.14013721 -140.50571145 75.95716171 -135 75 C-133.14071963 74.90710793 -131.27942572 74.84724879 -129.41796875 74.82421875 C-127.89526367 74.78844727 -127.89526367 74.78844727 -126.34179688 74.75195312 C-124.25085402 74.70922798 -122.15964645 74.67784577 -120.06835938 74.65820312 C-109.62101726 74.37405657 -101.95032091 70.97957815 -93.375 65.25 C-87.2415382 61.2746901 -81.0049563 57.82471667 -74.40380859 54.68847656 C-71.41325041 53.25804079 -68.65750643 51.7697994 -65.90234375 49.91796875 C-63.0367579 48.02429089 -60.40035816 46.87027911 -57.1875 45.6875 C-51.23353516 43.27214311 -46.81296649 40.20394437 -42 36 C-41.15308594 35.30777344 -40.30617188 34.61554688 -39.43359375 33.90234375 C-33.52963614 28.91345557 -29.53011204 23.87367344 -26 17 C-22.40642281 17.56990652 -20.82750729 18.86382477 -18.375 21.5 C-15.96389084 24.11806646 -15.96389084 24.11806646 -13 26 C-12.85304688 24.7315625 -12.85304688 24.7315625 -12.703125 23.4375 C-11.90855477 19.55293442 -10.53423878 16.53744733 -8.75 13 C-7.87601562 11.2365625 -7.87601562 11.2365625 -6.984375 9.4375 C-4.92431805 5.86889741 -2.71966575 3.07603575 0 0 Z " fill="#365055" transform="translate(410,208)"/>
<path d="M0 0 C3.17288399 0.23046286 4.68129797 0.71208169 7.0625 2.86328125 C11.45860781 8.42045786 14.40370419 13.61779064 16.69921875 20.3359375 C19.37973281 25.82575908 24.26148438 27.69553092 29.625 30.0625 C36.13706384 33.10453244 40.37641351 37.11454303 45.3203125 42.359375 C57.95151547 54.80644965 77.99514963 59.39796471 95 62 C97.16786267 62.38922989 99.33469812 62.78426776 101.5 63.1875 C102.99991422 63.45880801 104.49987666 63.72985067 106 64 C106 64.33 106 64.66 106 65 C99.31478609 66.2145355 92.68457055 66.17354088 85.90454102 66.20532227 C83.94254005 66.22017166 83.94254005 66.22017166 81.94090271 66.23532104 C78.37120232 66.26223148 74.8014889 66.28331558 71.23174405 66.30332303 C67.49479915 66.32526865 63.75789378 66.35261517 60.02098083 66.37937927 C52.95220857 66.42919067 45.88341422 66.4741721 38.81459898 66.51740164 C30.76377776 66.56687308 22.71299622 66.6217543 14.66221344 66.67708123 C-1.89182107 66.7907238 -18.44589204 66.89760107 -35 67 C-33.55589177 67.49433267 -32.1106498 67.98535421 -30.66493225 68.47496033 C-29.8602353 68.74874984 -29.05553835 69.02253935 -28.22645664 69.30462551 C-25.85200317 70.04622287 -23.73231224 70.39347846 -21.24609375 70.44140625 C-20.45396484 70.46783203 -19.66183594 70.49425781 -18.84570312 70.52148438 C-18.05099609 70.53501953 -17.25628906 70.54855469 -16.4375 70.5625 C-9.35325354 70.71687825 -2.93387257 71.22039098 3.625 74.1875 C6.76620864 75.26212401 8.74002965 74.61508875 12 74 C17.23824217 73.43655883 21.28085492 73.09877901 25.5625 76.4375 C31.55836542 80.8502575 39.86425984 79.91080325 47 80 C47.33 80.99 47.66 81.98 48 83 C45.59458071 84.20270964 43.89633409 84.20316663 41.2109375 84.31640625 C40.26992187 84.35830078 39.32890625 84.40019531 38.359375 84.44335938 C37.37453125 84.48267578 36.3896875 84.52199219 35.375 84.5625 C34.38242188 84.60568359 33.38984375 84.64886719 32.3671875 84.69335938 C29.91160162 84.79961069 27.45591297 84.90164964 25 85 C24.7987854 86.18613892 24.7987854 86.18613892 24.59350586 87.39624023 C23.70534056 91.29269556 21.55459491 92.3628309 18.40234375 94.5859375 C15.11324372 96.52196061 11.7091579 97.8199604 8.1015625 99.04296875 C5.66659903 99.928817 5.66659903 99.928817 4 103 C4.99 104.98 5.98 106.96 7 109 C6.01 109.495 6.01 109.495 5 110 C5.495 111.6396875 5.495 111.6396875 6 113.3125 C6.94885983 116.81142063 7 119.41710145 7 123 C7.33 123.66 7.66 124.32 8 125 C7.01 125.495 7.01 125.495 6 126 C6.99 127.485 6.99 127.485 8 129 C7.34 129.33 6.68 129.66 6 130 C7.98 131.98 7.98 131.98 10 134 C9.01 134.33 8.02 134.66 7 135 C7.66 135.99 8.32 136.98 9 138 C5.535 138.99 5.535 138.99 2 140 C1.67 139.34 1.34 138.68 1 138 C1.66 138 2.32 138 3 138 C2.484375 137.21625 1.96875 136.4325 1.4375 135.625 C0.963125 134.75875 0.48875 133.8925 0 133 C0.33 132.34 0.66 131.68 1 131 C1.66 131.33 2.32 131.66 3 132 C2.505 131.05125 2.01 130.1025 1.5 129.125 C0 126 0 126 0 124 C0.66 124 1.32 124 2 124 C1.01 122.02 0.02 120.04 -1 118 C-0.34 118 0.32 118 1 118 C0.34 117.01 -0.32 116.02 -1 115 C-2.09413907 118.2824172 -1.88266275 119.30865172 -1.0625 122.5625 C0 126.84768212 0 126.84768212 0 129 C-0.66 129 -1.32 129 -2 129 C-1.01 131.31 -0.02 133.62 1 136 C0.34 136 -0.32 136 -1 136 C0.68807908 140.23084903 0.68807908 140.23084903 4 143 C4 142.34 4 141.68 4 141 C8.35430628 141.65974338 11.99216111 143.20338257 16 145 C17.31143985 145.56496727 18.62390441 146.12756329 19.9375 146.6875 C20.948125 147.120625 21.95875 147.55375 23 148 C22.79375 147.4225 22.5875 146.845 22.375 146.25 C22 144 22 144 22.875 142.375 C24.48313025 138.98005837 24.9890853 135.42273186 25.625 131.75 C25.82609375 130.63238281 25.82609375 130.63238281 26.03125 129.4921875 C26.35966676 127.662437 26.6805798 125.83134246 27 124 C27.66 124 28.32 124 29 124 C30.2427938 129.32108803 31.2267658 134.58736061 32 140 C32.33 140.66 32.66 141.32 33 142 C32.34 142 31.68 142 31 142 C32.3089572 145.12197478 32.3089572 145.12197478 35 147 C35 147.66 35 148.32 35 149 C34.34 149.33 33.68 149.66 33 150 C34.54801956 152.5841005 34.54801956 152.5841005 37 155 C40.64182335 155.89055736 40.64182335 155.89055736 44 156 C43.34 155.34 42.68 154.68 42 154 C42.99 153.01 43.98 152.02 45 151 C44.34 150.34 43.68 149.68 43 149 C43.99 147.68 44.98 146.36 46 145 C45.34 144.67 44.68 144.34 44 144 C45.32 142.35 46.64 140.7 48 139 C47.34 138.67 46.68 138.34 46 138 C46.31182069 136.58318366 46.62448737 135.16655349 46.9375 133.75 C47.11152344 132.96109375 47.28554687 132.1721875 47.46484375 131.359375 C47.947556 129.23121297 48.46163178 127.11467158 49 125 C49.66 125 50.32 125 51 125 C52.98091672 128.70345299 54.26090962 131.88221077 55 136 C55.63437344 137.6792238 56.29289322 139.35008418 57 141 C56.34 141.33 55.68 141.66 55 142 C55.33 142.78375 55.66 143.5675 56 144.375 C57 147 57 147 57 149 C57.66 149.99 58.32 150.98 59 152 C58.67 152.33 58.34 152.66 58 153 C58.66 153.33 59.32 153.66 60 154 C59.67 154.99 59.34 155.98 59 157 C59.66 157.33 60.32 157.66 61 158 C61 158.66 61 159.32 61 160 C60.34 160.33 59.68 160.66 59 161 C59.99 161.66 60.98 162.32 62 163 C62 163.66 62 164.32 62 165 C61.01 165.33 60.02 165.66 59 166 C59 166.66 59 167.32 59 168 C57.35 167.67 55.7 167.34 54 167 C53.67 169.97 53.34 172.94 53 176 C54.44375 176.33 55.8875 176.66 57.375 177 C61.75447756 178.28300188 64.55451523 180.02485125 68 183 C72.08385649 186.50866543 75.33942396 188.03154507 80.52734375 189.28125 C84.70389811 190.49528792 88.30767534 192.74357938 92 195 C92 195.33 92 195.66 92 196 C53.69274051 196.83521069 53.69274051 196.83521069 38 192 C36.76999268 191.64591064 36.76999268 191.64591064 35.51513672 191.28466797 C17.40389859 186.03508278 0.20956999 178.23911595 -15 167 C-16.58554688 165.85724609 -16.58554688 165.85724609 -18.203125 164.69140625 C-34.41402753 152.69711774 -48.33850001 138.11376325 -59 121 C-59.41040527 120.34322266 -59.82081055 119.68644531 -60.24365234 119.00976562 C-76.85953847 91.95595346 -84.89147412 62.63082252 -84 31 C-81.66475218 33.25740623 -79.81294927 35.2805761 -78 38 C-77.38253906 37.73058594 -76.76507813 37.46117187 -76.12890625 37.18359375 C-73.53417732 36.20206707 -71.00532174 35.41036485 -68.33984375 34.66015625 C-51.09363792 29.65947482 -42.94239034 22.17817619 -32 8 C-29.20672249 4.46508305 -27.26163401 2.21027234 -22.625 1.4375 C-17.58021634 3.61197572 -15.63686605 7.09835 -12.69921875 11.62890625 C-11.85810547 12.80259766 -11.85810547 12.80259766 -11 14 C-10.34 14 -9.68 14 -9 14 C-7.55667987 11.87781764 -6.2313612 9.77294266 -4.9375 7.5625 C-1.07519531 1.07519531 -1.07519531 1.07519531 0 0 Z " fill="#344E54" transform="translate(169,219)"/>
<path d="M0 0 C9.11380988 0.07576802 18.13989688 1.17685432 27.1875 2.1875 C28.02265137 2.27821777 28.85780273 2.36893555 29.71826172 2.46240234 C32.08363974 2.71960031 34.44819516 2.98313231 36.8125 3.25 C37.52881592 3.32911621 38.24513184 3.40823242 38.9831543 3.48974609 C43.95345338 4.07047669 43.95345338 4.07047669 46.1875 5.1875 C46.1875 5.8475 46.1875 6.5075 46.1875 7.1875 C44.2075 8.1775 42.2275 9.1675 40.1875 10.1875 C42.4975 10.5175 44.8075 10.8475 47.1875 11.1875 C47.1875 11.5175 47.1875 11.8475 47.1875 12.1875 C44.2175 12.1875 41.2475 12.1875 38.1875 12.1875 C38.5175 12.8475 38.8475 13.5075 39.1875 14.1875 C45.1275 14.5175 51.0675 14.8475 57.1875 15.1875 C53.33054061 17.1159797 49.98976101 17.91590782 45.8125 18.625 C44.37600534 18.87984339 42.93981146 19.13638737 41.50390625 19.39453125 C40.78219238 19.52424316 40.06047852 19.65395508 39.31689453 19.78759766 C35.04255199 20.5903233 30.80588915 21.57152407 26.56640625 22.5390625 C18.97173478 23.99653702 11.4017818 24.36308647 3.68359375 24.50390625 C2.7197023 24.52468735 1.75581085 24.54546844 0.76271057 24.56687927 C-2.28312818 24.63168896 -5.32904495 24.69093716 -8.375 24.75 C-10.45378376 24.79325062 -12.53255994 24.83686688 -14.61132812 24.88085938 C-19.6783077 24.98729888 -24.74536488 25.08875453 -29.8125 25.1875 C-29.8125 26.8375 -29.8125 28.4875 -29.8125 30.1875 C-17.53315917 32.37947939 -5.25521472 32.79193166 7.1875 33.1875 C7.1875 33.5175 7.1875 33.8475 7.1875 34.1875 C-0.7325 34.6825 -0.7325 34.6825 -8.8125 35.1875 C-6.28796409 37.71203591 -5.33161494 37.52527391 -1.8125 37.75 C-0.64074219 37.82605469 0.53101563 37.90210938 1.73828125 37.98046875 C5.13053724 38.15416622 8.52277038 38.26405831 11.91796875 38.36328125 C50.17799786 39.51766595 50.17799786 39.51766595 61.1875 43.1875 C61.1875 43.8475 61.1875 44.5075 61.1875 45.1875 C60.13949219 45.58582031 60.13949219 45.58582031 59.0703125 45.9921875 C58.16023437 46.34539062 57.25015625 46.69859375 56.3125 47.0625 C55.40757812 47.41054688 54.50265625 47.75859375 53.5703125 48.1171875 C51.06532993 49.07280895 51.06532993 49.07280895 49.1875 51.1875 C48.88724951 53.6288266 48.88724951 53.6288266 50.1875 56.1875 C52.70439607 58.13743211 55.38392421 59.68672481 58.1875 61.1875 C58.1153125 61.81398438 58.043125 62.44046875 57.96875 63.0859375 C57.8759375 63.90320313 57.783125 64.72046875 57.6875 65.5625 C57.5946875 66.37460937 57.501875 67.18671875 57.40625 68.0234375 C57.15397649 70.15662825 57.15397649 70.15662825 57.1875 72.1875 C63.1275 72.1875 69.0675 72.1875 75.1875 72.1875 C75.1875 72.5175 75.1875 72.8475 75.1875 73.1875 C70.2375 73.1875 65.2875 73.1875 60.1875 73.1875 C60.5175 73.8475 60.8475 74.5075 61.1875 75.1875 C75.0475 75.6825 75.0475 75.6825 89.1875 76.1875 C89.1875 76.5175 89.1875 76.8475 89.1875 77.1875 C80.6075 77.1875 72.0275 77.1875 63.1875 77.1875 C63.1875 77.8475 63.1875 78.5075 63.1875 79.1875 C66.8175 79.5175 70.4475 79.8475 74.1875 80.1875 C74.1875 80.5175 74.1875 80.8475 74.1875 81.1875 C73.07890625 81.32027344 71.9703125 81.45304687 70.828125 81.58984375 C69.3645673 81.76809757 67.90102651 81.94649028 66.4375 82.125 C65.70789063 82.21201172 64.97828125 82.29902344 64.2265625 82.38867188 C60.29259798 82.83347891 60.29259798 82.83347891 56.43725586 83.6940918 C53.08798445 84.42864172 49.71570694 84.48170074 46.30078125 84.6171875 C44.70505934 84.69100123 43.1093568 84.7652347 41.51367188 84.83984375 C39.0287226 84.95185922 36.54377621 85.06072286 34.05834961 85.16162109 C14.16133723 85.78936038 14.16133723 85.78936038 -4.8125 91.1875 C-4.8125 92.5075 -4.8125 93.8275 -4.8125 95.1875 C0.96065077 97.51896473 6.66598318 99.09449815 12.74609375 100.44140625 C13.55175781 100.68761719 14.35742188 100.93382812 15.1875 101.1875 C15.5175 101.8475 15.8475 102.5075 16.1875 103.1875 C5.57028541 108.14503707 -2.96290779 107.44261551 -14.125 104.625 C-24.49222938 102.1953649 -35.23287683 102.93324482 -45.8125 103.1875 C-45.8125 102.5275 -45.8125 101.8675 -45.8125 101.1875 C-46.8025 100.1975 -46.8025 100.1975 -47.8125 99.1875 C-46.4925 99.1875 -45.1725 99.1875 -43.8125 99.1875 C-43.8125 98.5275 -43.8125 97.8675 -43.8125 97.1875 C-45.1325 96.5275 -46.4525 95.8675 -47.8125 95.1875 C-46.8225 94.8575 -45.8325 94.5275 -44.8125 94.1875 C-44.8125 93.5275 -44.8125 92.8675 -44.8125 92.1875 C-46.1325 91.5275 -47.4525 90.8675 -48.8125 90.1875 C-47.8225 90.1875 -46.8325 90.1875 -45.8125 90.1875 C-45.8125 89.5275 -45.8125 88.8675 -45.8125 88.1875 C-46.8025 87.8575 -47.7925 87.5275 -48.8125 87.1875 C-48.8125 86.1975 -48.8125 85.2075 -48.8125 84.1875 C-49.4725 83.1975 -50.1325 82.2075 -50.8125 81.1875 C-50.1525 81.1875 -49.4925 81.1875 -48.8125 81.1875 C-49.328125 80.40375 -49.84375 79.62 -50.375 78.8125 C-50.849375 77.94625 -51.32375 77.08 -51.8125 76.1875 C-51.4825 75.5275 -51.1525 74.8675 -50.8125 74.1875 C-51.14082661 72.32795549 -51.14082661 72.32795549 -51.8125 70.1875 C-52.06128906 69.26453125 -52.31007812 68.3415625 -52.56640625 67.390625 C-52.83324219 66.41609375 -53.10007813 65.4415625 -53.375 64.4375 C-53.64441406 63.45265625 -53.91382813 62.4678125 -54.19140625 61.453125 C-54.39636719 60.70546875 -54.60132813 59.9578125 -54.8125 59.1875 C-55.4725 59.1875 -56.1325 59.1875 -56.8125 59.1875 C-56.86148438 59.87457031 -56.91046875 60.56164062 -56.9609375 61.26953125 C-57.03570312 62.17058594 -57.11046875 63.07164062 -57.1875 64 C-57.29191406 65.33998047 -57.29191406 65.33998047 -57.3984375 66.70703125 C-57.8125 69.1875 -57.8125 69.1875 -59.8125 72.1875 C-58.8225 71.8575 -57.8325 71.5275 -56.8125 71.1875 C-57.88651108 74.10267292 -58.59060176 75.96560176 -60.8125 78.1875 C-60.8125 79.5075 -60.8125 80.8275 -60.8125 82.1875 C-61.1425 82.5175 -61.4725 82.8475 -61.8125 83.1875 C-60.8225 84.1775 -60.8225 84.1775 -59.8125 85.1875 C-60.8025 86.1775 -61.7925 87.1675 -62.8125 88.1875 C-61.8225 89.1775 -61.8225 89.1775 -60.8125 90.1875 C-61.1425 90.5175 -61.4725 90.8475 -61.8125 91.1875 C-65.88529689 90.80327388 -69.27824118 90.30805529 -72.8125 88.1875 C-72.1525 87.8575 -71.4925 87.5275 -70.8125 87.1875 C-71.8025 86.1975 -72.7925 85.2075 -73.8125 84.1875 C-73.4825 83.5275 -73.1525 82.8675 -72.8125 82.1875 C-71.8225 82.6825 -71.8225 82.6825 -70.8125 83.1875 C-70.8125 82.5275 -70.8125 81.8675 -70.8125 81.1875 C-71.8025 80.8575 -72.7925 80.5275 -73.8125 80.1875 C-74.55763723 78.08756779 -74.8125 76.41318901 -74.8125 74.1875 C-75.13340014 71.47703992 -75.46649589 68.76974841 -75.8125 66.0625 C-75.90789062 65.30839844 -76.00328125 64.55429687 -76.1015625 63.77734375 C-76.3374386 61.91392254 -76.57482621 60.05069277 -76.8125 58.1875 C-77.4725 58.1875 -78.1325 58.1875 -78.8125 58.1875 C-78.84988281 59.04472656 -78.88726562 59.90195312 -78.92578125 60.78515625 C-79.30154126 67.32043325 -79.94473077 72.3216084 -82.8125 78.1875 C-82.3175 79.1775 -82.3175 79.1775 -81.8125 80.1875 C-82.1425 80.8475 -82.4725 81.5075 -82.8125 82.1875 C-89.4162211 80.63540591 -95.61420258 77.89925512 -101.8125 75.1875 C-101.8125 75.8475 -101.8125 76.5075 -101.8125 77.1875 C-103.75 76.5 -103.75 76.5 -105.8125 75.1875 C-106.54159456 72.75718481 -106.8125 70.71588375 -106.8125 68.1875 C-107.13052943 66.51784549 -107.46234951 64.85071482 -107.8125 63.1875 C-107.1525 63.1875 -106.4925 63.1875 -105.8125 63.1875 C-106.12703125 62.62289062 -106.4415625 62.05828125 -106.765625 61.4765625 C-107.85771989 59.08862368 -108.26686262 57.16236988 -108.5625 54.5625 C-108.66046875 53.78648437 -108.7584375 53.01046875 -108.859375 52.2109375 C-108.8125 50.1875 -108.8125 50.1875 -106.8125 48.1875 C-105.3518715 50.83488916 -104.8125 52.08198334 -104.8125 55.1875 C-104.4825 56.1775 -104.1525 57.1675 -103.8125 58.1875 C-104.4725 58.1875 -105.1325 58.1875 -105.8125 58.1875 C-105.3175 59.13625 -104.8225 60.085 -104.3125 61.0625 C-102.8125 64.1875 -102.8125 64.1875 -102.8125 66.1875 C-103.8025 66.6825 -103.8025 66.6825 -104.8125 67.1875 C-104.1525 68.8375 -103.4925 70.4875 -102.8125 72.1875 C-99.8870356 72.4111068 -99.8870356 72.4111068 -97.8125 71.1875 C-98.4725 70.1975 -99.1325 69.2075 -99.8125 68.1875 C-98.8225 67.6925 -98.8225 67.6925 -97.8125 67.1875 C-98.8025 65.8675 -99.7925 64.5475 -100.8125 63.1875 C-99.8225 62.6925 -99.8225 62.6925 -98.8125 62.1875 C-99.4725 61.1975 -100.1325 60.2075 -100.8125 59.1875 C-99.8225 58.6925 -99.8225 58.6925 -98.8125 58.1875 C-99.4725 57.1975 -100.1325 56.2075 -100.8125 55.1875 C-100.50325852 53.84837394 -100.16723671 52.51529921 -99.8125 51.1875 C-100.15207518 48.84039941 -100.15207518 48.84039941 -100.8125 46.5 C-101.18631554 45.07249192 -101.53045166 43.63593574 -101.8125 42.1875 C-101.3175 41.6925 -101.3175 41.6925 -100.8125 41.1875 C-101.4725 39.5375 -102.1325 37.8875 -102.8125 36.1875 C-99.6152791 32.38390962 -95.34829391 31.28567739 -90.8203125 29.56640625 C-87.7010515 28.13640738 -85.39365133 26.43053003 -82.8125 24.1875 C-83.1425 23.5275 -83.4725 22.8675 -83.8125 22.1875 C-82.8225 22.1875 -81.8325 22.1875 -80.8125 22.1875 C-80.8125 21.1975 -80.8125 20.2075 -80.8125 19.1875 C-73.2225 18.5275 -65.6325 17.8675 -57.8125 17.1875 C-58.3075 16.1975 -58.3075 16.1975 -58.8125 15.1875 C-59.95847656 15.17332031 -61.10445312 15.15914063 -62.28515625 15.14453125 C-77.39336142 14.74559086 -77.39336142 14.74559086 -82.8125 9.1875 C-82.8125 8.8575 -82.8125 8.5275 -82.8125 8.1875 C-71.86779181 7.07470072 -60.91862791 6.17389043 -49.94140625 5.45703125 C-48.97707672 5.39364059 -48.01274719 5.33024994 -47.01919556 5.26493835 C-42.11780156 4.94400742 -37.2160478 4.63125911 -32.31347656 4.32885742 C-21.5478043 3.64508341 -10.14815014 0.07096608 0 0 Z " fill="#FCEEC1" transform="translate(274.8125,284.8125)"/>
<path d="M0 0 C0.33 0.66 0.66 1.32 1 2 C1.63069397 1.9986908 2.26138794 1.99738159 2.91119385 1.99603271 C20.86508784 1.96441741 38.81847343 1.99999056 56.77152252 2.18390656 C60.64197071 2.22322914 64.51218901 2.25558057 68.3828125 2.27099609 C94.24948899 2.38103912 119.22721484 4.558974 144.6875 9.38671875 C148.11497384 10.02128643 151.54663658 10.52868637 155 11 C153.48678787 16.42520938 150.93989801 20.81739261 148 25.5625 C147.50798096 26.35825439 147.01596191 27.15400879 146.5090332 27.97387695 C135.18332647 46.03064266 121.21339071 61.4450876 104 74 C103.1853125 74.62003906 102.370625 75.24007812 101.53125 75.87890625 C73.45060604 96.60280616 38.74399434 106.54228604 4.125 106.125 C2.6471416 106.11493329 1.16927642 106.10581407 -0.30859375 106.09765625 C-3.87254028 106.07597371 -7.43622415 106.04165536 -11 106 C-11 105.67 -11 105.34 -11 105 C-2.42 104.67 6.16 104.34 15 104 C12.97875 103.05125 10.9575 102.1025 8.875 101.125 C7.73804688 100.59132813 6.60109375 100.05765625 5.4296875 99.5078125 C2.0906546 97.96322508 2.0906546 97.96322508 -1.1640625 97.015625 C-4.15846132 95.94325077 -5.87078972 94.70453875 -8.25 92.625 C-12.87322581 88.85238473 -17.38902815 86.97569431 -23 85 C-23 81.7 -23 78.4 -23 75 C-21.02 75.66 -19.04 76.32 -17 77 C-16.505 76.01 -16.505 76.01 -16 75 C-15.67 75.66 -15.34 76.32 -15 77 C-14.11199707 76.9685791 -14.11199707 76.9685791 -13.20605469 76.93652344 C-0.41744478 76.54719774 11.28763052 77.17130787 23.75 80.125 C29.77902997 81.48047278 34.71584397 81.50812319 40.4375 79 C41.30246094 78.62875 42.16742188 78.2575 43.05859375 77.875 C43.69925781 77.58625 44.33992188 77.2975 45 77 C44.16021606 76.79636841 44.16021606 76.79636841 43.3034668 76.58862305 C40.76198937 75.96583852 38.22485181 75.32687601 35.6875 74.6875 C34.80642578 74.47416016 33.92535156 74.26082031 33.01757812 74.04101562 C32.17001953 73.82509766 31.32246094 73.60917969 30.44921875 73.38671875 C29.66893311 73.19295654 28.88864746 72.99919434 28.0847168 72.79956055 C25.77107093 71.91219783 24.60681382 70.85851053 23 69 C23.93525944 66.66904572 24.48847306 65.29263555 26.70703125 64.0234375 C40.24732799 59.85332756 54.18864647 59.48770543 68.22705078 58.89550781 C80.74111792 58.40777174 80.74111792 58.40777174 93 56 C92.67 55.34 92.34 54.68 92 54 C92.495 53.01 92.495 53.01 93 52 C91.515 51.01 91.515 51.01 90 50 C90 49.34 90 48.68 90 48 C88.515 47.505 88.515 47.505 87 47 C86.30415983 42.97959015 85.8299903 39.91736581 87 36 C86.43410156 35.69707031 85.86820312 35.39414062 85.28515625 35.08203125 C79.21955403 31.61749571 79.21955403 31.61749571 78 28.1875 C78 27.465625 78 26.74375 78 26 C82.11118919 22.47612355 85.46508112 20 91 20 C91 19.34 91 18.68 91 18 C73.53336875 15.98491111 56.26520507 14.61054034 38.68701172 14.08398438 C35.14130932 13.97316104 31.60426208 13.82850456 28.0625 13.625 C27.12535156 13.57601563 26.18820312 13.52703125 25.22265625 13.4765625 C22.6136266 12.9171572 21.65747416 12.0458592 20 10 C20.33 9.67 20.66 9.34 21 9 C19.81921875 8.87882812 18.6384375 8.75765625 17.421875 8.6328125 C15.86453957 8.4639448 14.30725023 8.29465165 12.75 8.125 C11.97269531 8.04636719 11.19539063 7.96773438 10.39453125 7.88671875 C3.27568856 7.09573623 3.27568856 7.09573623 0 5 C0 3.35 0 1.7 0 0 Z " fill="#7AAA93" transform="translate(245,310)"/>
<path d="M0 0 C2.20540114 2.20540114 3.2400727 4.21394742 4.625 7 C5.07101563 7.886875 5.51703125 8.77375 5.9765625 9.6875 C7 12 7 12 7 14 C6.01 14.495 6.01 14.495 5 15 C6.32 16.65 7.64 18.3 9 20 C8.34 20.33 7.68 20.66 7 21 C9.475 24.465 9.475 24.465 12 28 C11.34 28.33 10.68 28.66 10 29 C10.66 29.99 11.32 30.98 12 32 C11.01 32.495 11.01 32.495 10 33 C10.99 33.66 11.98 34.32 13 35 C13 35.66 13 36.32 13 37 C11.515 37.495 11.515 37.495 10 38 C12.38573379 39.89213369 14.07175348 41.02391783 17 42 C17 42.66 17 43.32 17 44 C15.02 44.495 15.02 44.495 13 45 C13.66 45.33 14.32 45.66 15 46 C15 46.66 15 47.32 15 48 C13.02 48.66 11.04 49.32 9 50 C11.31 51.32 13.62 52.64 16 54 C16 54.66 16 55.32 16 56 C14.35 56.66 12.7 57.32 11 58 C11 58.66 11 59.32 11 60 C13.64 60.66 16.28 61.32 19 62 C18.67 63.32 18.34 64.64 18 66 C20.97953359 65.85982174 23.95849304 65.71313658 26.9375 65.5625 C27.78763672 65.52318359 28.63777344 65.48386719 29.51367188 65.44335938 C30.32255859 65.40146484 31.13144531 65.35957031 31.96484375 65.31640625 C32.7137085 65.27974854 33.46257324 65.24309082 34.23413086 65.20532227 C36.02461326 65.18228937 36.02461326 65.18228937 37 64 C35.68 63.67 34.36 63.34 33 63 C33 62.34 33 61.68 33 61 C33.99 60.34 34.98 59.68 36 59 C35.34 57.68 34.68 56.36 34 55 C35.98 52.525 35.98 52.525 38 50 C37.01 49.67 36.02 49.34 35 49 C36.19899698 45.9168649 37.47700477 42.93720508 39 40 C38.34 40 37.68 40 37 40 C37.66 38.35 38.32 36.7 39 35 C38.34 34.34 37.68 33.68 37 33 C38.32 30.69 39.64 28.38 41 26 C43.54559664 27.88152795 43.99288547 28.96442736 44.625 32.125 C44.74875 33.40375 44.8725 34.6825 45 36 C45.16340032 37.56284496 45.33014443 39.12534344 45.5 40.6875 C45.5721875 41.41324219 45.644375 42.13898438 45.71875 42.88671875 C45.99763795 44.98225181 46.44770435 46.96110856 47 49 C46.34 49 45.68 49 45 49 C45.99 51.31 46.98 53.62 48 56 C47.34 56 46.68 56 46 56 C47.68807908 60.23084903 47.68807908 60.23084903 51 63 C51 62.34 51 61.68 51 61 C55.35430628 61.65974338 58.99216111 63.20338257 63 65 C64.31143985 65.56496727 65.62390441 66.12756329 66.9375 66.6875 C67.948125 67.120625 68.95875 67.55375 70 68 C69.690625 67.13375 69.690625 67.13375 69.375 66.25 C69 64 69 64 69.875 62.375 C71.48313025 58.98005837 71.9890853 55.42273186 72.625 51.75 C72.7590625 51.00492187 72.893125 50.25984375 73.03125 49.4921875 C73.35966676 47.662437 73.6805798 45.83134246 74 44 C74.66 44 75.32 44 76 44 C77.2427938 49.32108803 78.2267658 54.58736061 79 60 C79.33 60.66 79.66 61.32 80 62 C79.34 62 78.68 62 78 62 C79.3089572 65.12197478 79.3089572 65.12197478 82 67 C82 67.66 82 68.32 82 69 C81.01 69.495 81.01 69.495 80 70 C81.54801956 72.5841005 81.54801956 72.5841005 84 75 C87.64182335 75.89055736 87.64182335 75.89055736 91 76 C90.34 75.34 89.68 74.68 89 74 C89.99 73.01 90.98 72.02 92 71 C91.34 70.34 90.68 69.68 90 69 C90.99 67.68 91.98 66.36 93 65 C92.34 64.67 91.68 64.34 91 64 C92.32 62.35 93.64 60.7 95 59 C94.34 58.67 93.68 58.34 93 58 C93.31182069 56.58318366 93.62448737 55.16655349 93.9375 53.75 C94.19853516 52.56664062 94.19853516 52.56664062 94.46484375 51.359375 C94.947556 49.23121297 95.46163178 47.11467158 96 45 C96.66 45 97.32 45 98 45 C99.98091672 48.70345299 101.26090962 51.88221077 102 56 C102.63437344 57.6792238 103.29289322 59.35008418 104 61 C103.01 61.495 103.01 61.495 102 62 C102.495 63.175625 102.495 63.175625 103 64.375 C104 67 104 67 104 69 C104.99 70.485 104.99 70.485 106 72 C105.67 72.33 105.34 72.66 105 73 C105.66 73.33 106.32 73.66 107 74 C106.505 75.485 106.505 75.485 106 77 C106.66 77.33 107.32 77.66 108 78 C108 78.66 108 79.32 108 80 C107.01 80.495 107.01 80.495 106 81 C107.485 81.99 107.485 81.99 109 83 C109 83.66 109 84.32 109 85 C107.515 85.495 107.515 85.495 106 86 C106 86.66 106 87.32 106 88 C104.35 87.67 102.7 87.34 101 87 C100.67 89.97 100.34 92.94 100 96 C101.44375 96.33 102.8875 96.66 104.375 97 C108.75447756 98.28300188 111.55451523 100.02485125 115 103 C119.08385649 106.50866543 122.33942396 108.03154507 127.52734375 109.28125 C131.70389811 110.49528792 135.30767534 112.74357938 139 115 C139 115.33 139 115.66 139 116 C100.69274051 116.83521069 100.69274051 116.83521069 85 112 C84.17999512 111.76394043 83.35999023 111.52788086 82.51513672 111.28466797 C64.40389859 106.03508278 47.20956999 98.23911595 32 87 C30.94296875 86.23816406 29.8859375 85.47632813 28.796875 84.69140625 C14.92617362 74.42504477 -1.45044119 60.8612182 -9 45 C-8.77383829 42.75371587 -8.59696842 41.59696842 -7 40 C-8.32 39.34 -9.64 38.68 -11 38 C-10.34 37.34 -9.68 36.68 -9 36 C-9.66 35.34 -10.32 34.68 -11 34 C-9.68 32.68 -8.36 31.36 -7 30 C-7.66 29.67 -8.32 29.34 -9 29 C-8 27 -7 25 -6 23 C-6.66 22.34 -7.32 21.68 -8 21 C-7.74605469 20.38253906 -7.49210937 19.76507813 -7.23046875 19.12890625 C-5.1755224 14.07235287 -3.27524124 9.01192791 -1.61328125 3.8125 C-1 2 -1 2 0 0 Z " fill="#2D4B52" transform="translate(122,299)"/>
<path d="M0 0 C2.64465038 3.1254959 3.84414715 6.08788267 5 10 C5.74765625 9.84660156 6.4953125 9.69320313 7.265625 9.53515625 C12.41996105 8.79651186 17.54956611 8.62234865 22.75 8.4375 C23.90346924 8.3950415 25.05693848 8.35258301 26.24536133 8.30883789 C41.49265088 7.80828284 56.74677635 7.91010431 72 8 C71.32495832 11.97929973 70.88859804 13.65994628 67.5625 16.0625 C63.64925045 18.82229625 59.62137085 20.51071174 55.1015625 22.04296875 C52.66659903 22.928817 52.66659903 22.928817 51 26 C51.99 27.98 52.98 29.96 54 32 C53.01 32.495 53.01 32.495 52 33 C52.495 34.6396875 52.495 34.6396875 53 36.3125 C53.94885983 39.81142063 54 42.41710145 54 46 C54.33 46.66 54.66 47.32 55 48 C54.01 48.495 54.01 48.495 53 49 C53.66 49.99 54.32 50.98 55 52 C54.01 52.495 54.01 52.495 53 53 C54.32 54.32 55.64 55.64 57 57 C55.515 57.495 55.515 57.495 54 58 C54.66 58.99 55.32 59.98 56 61 C53.69 61.66 51.38 62.32 49 63 C48.67 62.34 48.34 61.68 48 61 C48.66 61 49.32 61 50 61 C49.484375 60.21625 48.96875 59.4325 48.4375 58.625 C47.963125 57.75875 47.48875 56.8925 47 56 C47.495 55.01 47.495 55.01 48 54 C48.66 54.33 49.32 54.66 50 55 C49.505 54.05125 49.01 53.1025 48.5 52.125 C47 49 47 49 47 47 C47.66 47 48.32 47 49 47 C48.01 45.02 47.02 43.04 46 41 C46.66 41 47.32 41 48 41 C47.360625 40.443125 46.72125 39.88625 46.0625 39.3125 C43.76728568 36.73907788 43.52495189 35.32469533 43 32 C42.01 31.01 42.01 31.01 41 30 C40.01 31.98 39.02 33.96 38 36 C38.66 36.66 39.32 37.32 40 38 C39.01 39.65 38.02 41.3 37 43 C37.66 43 38.32 43 39 43 C37.94124926 46.40312738 36.99097846 49.01353231 35 52 C36.32 52.33 37.64 52.66 39 53 C38.34 53.78375 37.68 54.5675 37 55.375 C34.79798559 57.71512812 34.79798559 57.71512812 35 60 C35.66 60.66 36.32 61.32 37 62 C35.68 62.66 34.36 63.32 33 64 C33 64.66 33 65.32 33 66 C34.65 66 36.3 66 38 66 C37.34 66.99 36.68 67.98 36 69 C34.12060547 69.34057617 34.12060547 69.34057617 31.8671875 69.29296875 C31.06152344 69.28330078 30.25585938 69.27363281 29.42578125 69.26367188 C28.58402344 69.23853516 27.74226563 69.21339844 26.875 69.1875 C26.02550781 69.17396484 25.17601562 69.16042969 24.30078125 69.14648438 C22.20025163 69.11108219 20.10004707 69.05727401 18 69 C18.495 67.02 18.495 67.02 19 65 C17.576875 64.7834375 17.576875 64.7834375 16.125 64.5625 C13 64 13 64 11 63 C11 62.34 11 61.68 11 61 C12.65 60.34 14.3 59.68 16 59 C16 58.34 16 57.68 16 57 C15.05125 56.731875 14.1025 56.46375 13.125 56.1875 C10 55 10 55 8 52 C10.31 51.67 12.62 51.34 15 51 C15 50.34 15 49.68 15 49 C13.68 48.34 12.36 47.68 11 47 C12.98 47 14.96 47 17 47 C17 46.34 17 45.68 17 45 C16.236875 44.896875 15.47375 44.79375 14.6875 44.6875 C11.82940576 43.95635961 10.84257115 43.23048087 9 41 C10.98 40.505 10.98 40.505 13 40 C13 39.34 13 38.68 13 38 C11.68 37.34 10.36 36.68 9 36 C9.66 35.34 10.32 34.68 11 34 C10.34 33.01 9.68 32.02 9 31 C9.66 30.67 10.32 30.34 11 30 C8.525 27.03 8.525 27.03 6 24 C6.66 23.34 7.32 22.68 8 22 C6.68 20.68 5.36 19.36 4 18 C4.33 17.34 4.66 16.68 5 16 C5.66 16.33 6.32 16.66 7 17 C4.03 11.06 4.03 11.06 1 5 C-1.7736708 10.5473416 -4.08066596 16.10490259 -6 22 C-6.33 22.66 -6.66 23.32 -7 24 C-6.34 24.66 -5.68 25.32 -5 26 C-6.98 28.97 -6.98 28.97 -9 32 C-7.515 32.495 -7.515 32.495 -6 33 C-7.32 34.32 -8.64 35.64 -10 37 C-9.34 37.66 -8.68 38.32 -8 39 C-8.66 39.66 -9.32 40.32 -10 41 C-8.68 41.66 -7.36 42.32 -6 43 C-7.32 44.32 -8.64 45.64 -10 47 C-14.74800476 39.40965226 -19.28222455 31.81314876 -23.0625 23.6875 C-23.36099854 23.04804443 -23.65949707 22.40858887 -23.96704102 21.74975586 C-26 17.27554741 -26 17.27554741 -26 15 C-18.73973247 12.82191974 -11.54673035 12.40277493 -4 12 C-3.79503906 11.21753906 -3.59007813 10.43507813 -3.37890625 9.62890625 C-3.10949219 8.61699219 -2.84007813 7.60507812 -2.5625 6.5625 C-2.29566406 5.55316406 -2.02882813 4.54382813 -1.75390625 3.50390625 C-1 1 -1 1 0 0 Z " fill="#74A690" transform="translate(122,296)"/>
<path d="M0 0 C0.87978516 0.00322266 1.75957031 0.00644531 2.66601562 0.00976562 C3.56126953 0.01814453 4.45652344 0.02652344 5.37890625 0.03515625 C6.30123047 0.03966797 7.22355469 0.04417969 8.17382812 0.04882812 C10.42975673 0.06051687 12.68554592 0.0769017 14.94140625 0.09765625 C14.94140625 0.42765625 14.94140625 0.75765625 14.94140625 1.09765625 C12.30140625 1.42765625 9.66140625 1.75765625 6.94140625 2.09765625 C6.94140625 2.42765625 6.94140625 2.75765625 6.94140625 3.09765625 C5.17023438 3.06285156 5.17023438 3.06285156 3.36328125 3.02734375 C1.80599592 3.00858128 0.24870373 2.99038159 -1.30859375 2.97265625 C-2.08589844 2.95589844 -2.86320313 2.93914062 -3.6640625 2.921875 C-4.41816406 2.91542969 -5.17226563 2.90898437 -5.94921875 2.90234375 C-6.64047852 2.89187012 -7.33173828 2.88139648 -8.04394531 2.87060547 C-10.08698307 2.97039984 -10.08698307 2.97039984 -11.76953125 4.0456543 C-15.28886673 5.66306221 -18.97925876 5.7903911 -22.79296875 6.125 C-23.66830261 6.206931 -24.54363647 6.288862 -25.44549561 6.37327576 C-36.3836536 7.36210129 -47.34635976 8.00663513 -58.30859375 8.66015625 C-61.44451147 8.84862099 -64.58034115 9.03827157 -67.71600342 9.23094177 C-69.64362359 9.34926619 -71.57139222 9.46520718 -73.49932861 9.57826233 C-78.72378379 9.89758932 -83.86909121 10.41868615 -89.05859375 11.09765625 C-90.76648855 11.13636208 -92.47585554 11.14274505 -94.18359375 11.09765625 C-97.10828135 11.04853936 -99.36107152 11.16289655 -102.24609375 11.78515625 C-106.14988793 12.21891116 -108.53809338 10.73217428 -112.05859375 9.09765625 C-117.9052049 7.81573262 -123.844798 7.8018353 -129.80664062 7.66796875 C-135.51973761 7.44735036 -140.8568636 6.59807768 -146.05859375 4.09765625 C-146.38859375 3.43765625 -146.71859375 2.77765625 -147.05859375 2.09765625 C-146.36929244 2.09342431 -145.67999113 2.08919237 -144.9698019 2.08483219 C-128.18510816 1.98145505 -111.40045761 1.87280684 -94.61583614 1.75831699 C-86.4988693 1.70307688 -78.38189805 1.64961023 -70.26489258 1.6003418 C-63.18878929 1.55738688 -56.11271716 1.5110808 -49.03666216 1.4607777 C-45.29116949 1.43426761 -41.54568263 1.40941728 -37.80015373 1.38858223 C-33.61533911 1.36524072 -29.43061125 1.33441644 -25.24584961 1.30297852 C-23.39007545 1.29434532 -23.39007545 1.29434532 -21.49681091 1.28553772 C-14.27585558 1.22383317 -7.16914676 -0.04685717 0 0 Z " fill="#7DAA93" transform="translate(280.05859375,282.90234375)"/>
<path d="M0 0 C30.36 0 60.72 0 92 0 C86.93397939 7.59903092 72.49611218 10.6950916 63.95214844 12.72363281 C51.25882555 15.14838832 38.81920667 15.32833228 26 14 C26 10 26 10 27.25 8.3125 C29.1713554 6.87148345 30.65093022 6.40501203 33 6 C33 5.34 33 4.68 33 4 C16.665 2.515 16.665 2.515 0 1 C0 0.67 0 0.34 0 0 Z " fill="#78A892" transform="translate(288,286)"/>
<path d="M0 0 C-1.33333333 4 -2.66666667 8 -4 12 C-3.34 12.66 -2.68 13.32 -2 14 C-3.98 16.97 -3.98 16.97 -6 20 C-5.01 20.33 -4.02 20.66 -3 21 C-4.32 22.32 -5.64 23.64 -7 25 C-6.34 25.66 -5.68 26.32 -5 27 C-5.66 27.66 -6.32 28.32 -7 29 C-5.68 29.66 -4.36 30.32 -3 31 C-4.32 32.32 -5.64 33.64 -7 35 C-11.74800476 27.40965226 -16.28222455 19.81314876 -20.0625 11.6875 C-20.36099854 11.04804443 -20.65949707 10.40858887 -20.96704102 9.74975586 C-23 5.27554741 -23 5.27554741 -23 3 C-15.25381516 0.9615303 -8.01948074 -0.14069264 0 0 Z " fill="#74A690" transform="translate(119,308)"/>
<path d="M0 0 C1.32 1.65 2.64 3.3 4 5 C3.67 5.66 3.34 6.32 3 7 C3.93446535 9.03144641 4.93224776 11.03533587 6 13 C5.01 13.495 5.01 13.495 4 14 C4.33 15.093125 4.66 16.18625 5 17.3125 C5.94885983 20.81142063 6 23.41710145 6 27 C6.33 27.66 6.66 28.32 7 29 C6.34 29.33 5.68 29.66 5 30 C5.66 30.99 6.32 31.98 7 33 C6.01 33.495 6.01 33.495 5 34 C6.32 35.32 7.64 36.64 9 38 C7.515 38.495 7.515 38.495 6 39 C6.66 39.99 7.32 40.98 8 42 C5.69 42.66 3.38 43.32 1 44 C0.67 43.34 0.34 42.68 0 42 C0.66 42 1.32 42 2 42 C1.484375 41.21625 0.96875 40.4325 0.4375 39.625 C-0.2740625 38.325625 -0.2740625 38.325625 -1 37 C-0.67 36.34 -0.34 35.68 0 35 C0.66 35.33 1.32 35.66 2 36 C1.505 35.05125 1.01 34.1025 0.5 33.125 C-1 30 -1 30 -1 28 C-0.34 28 0.32 28 1 28 C0.01 26.02 -0.98 24.04 -2 22 C-1.34 22 -0.68 22 0 22 C-0.99 20.35 -1.98 18.7 -3 17 C-2.34 17 -1.68 17 -1 17 C-1.53625 16.360625 -2.0725 15.72125 -2.625 15.0625 C-4.58041964 10.70724716 -3.55797571 7.40189962 -2 3 C-1.34 2.01 -0.68 1.02 0 0 Z " fill="#304B52" transform="translate(170,315)"/>
<path d="M0 0 C1.60585493 0.62064937 3.20962617 1.2466918 4.8125 1.875 C5.70582031 2.22304688 6.59914062 2.57109375 7.51953125 2.9296875 C10 4 10 4 13 6 C13.66 6.33 14.32 6.66 15 7 C14.01 8.32 13.02 9.64 12 11 C13.32 11.33 14.64 11.66 16 12 C14.625 13.5 14.625 13.5 13 15 C12.34 15 11.68 15 11 15 C11 15.66 11 16.32 11 17 C14.465 16.505 14.465 16.505 18 16 C18 17.98 18 19.96 18 22 C9.20529218 18.64058008 1.31033908 13.90692155 -6 8 C-5.34 7.34 -4.68 6.68 -4 6 C-5.65 4.35 -7.3 2.7 -9 1 C-6.03 1.33 -3.06 1.66 0 2 C0 1.34 0 0.68 0 0 Z " fill="#6CA08C" transform="translate(179,362)"/>
<path d="M0 0 C3.71888239 0.50712033 6.73454239 1.11608215 10 3 C9.67 3.33 9.34 3.66 9 4 C10.32 4.66 11.64 5.32 13 6 C10.69 7.32 8.38 8.64 6 10 C9.63 10 13.26 10 17 10 C17 13.3 17 16.6 17 20 C10.42800532 20.41074967 5.47573299 19.00358598 -0.22265625 15.71875 C-2 14 -2 14 -2.390625 11.51953125 C-2.34421875 10.62621094 -2.2978125 9.73289062 -2.25 8.8125 C-2.21390625 7.91144531 -2.1778125 7.01039063 -2.140625 6.08203125 C-2.09421875 5.39496094 -2.0478125 4.70789063 -2 4 C-0.68 3.67 0.64 3.34 2 3 C1.34 2.01 0.68 1.02 0 0 Z " fill="#6AA08C" transform="translate(202,374)"/>
<path d="M0 0 C17.16 0 34.32 0 52 0 C52 0.33 52 0.66 52 1 C47.91131645 1.43386971 43.82196953 1.86080343 39.73193359 2.28173828 C38.34502354 2.42541123 36.95829732 2.57087184 35.57177734 2.71826172 C28.35825462 3.48388471 21.21973351 4.19410276 13.95556641 3.9855957 C11.76524154 3.93662261 11.76524154 3.93662261 8.75 4.6875 C5.07880959 5.10468073 3.11528196 3.8543345 0 2 C0 1.34 0 0.68 0 0 Z " fill="#6EA38E" transform="translate(169,290)"/>
<path d="M0 0 C4.83256305 0.41421969 6.82679218 2.46413986 10 6 C10.66 5.34 11.32 4.68 12 4 C14.5 4.1875 14.5 4.1875 17 5 C17.66 5.99 18.32 6.98 19 8 C17.02 7.34 15.04 6.68 13 6 C11.68 7.32 10.36 8.64 9 10 C8.60167969 9.4946875 8.20335937 8.989375 7.79296875 8.46875 C7.26316406 7.8190625 6.73335938 7.169375 6.1875 6.5 C5.40439453 5.52546875 5.40439453 5.52546875 4.60546875 4.53125 C3.00795167 2.65490872 3.00795167 2.65490872 0 3 C-1.70196856 5.2269175 -1.70196856 5.2269175 -3.1875 8 C-3.98220703 9.3921875 -3.98220703 9.3921875 -4.79296875 10.8125 C-5.19128906 11.534375 -5.58960938 12.25625 -6 13 C-8.46800047 11.84826645 -10.04783565 10.95216435 -12 9 C-14.58354218 8.83312552 -14.58354218 8.83312552 -17 9 C-16.67 8.01 -16.34 7.02 -16 6 C-21.31769912 5.4965492 -23.61950463 6.71386003 -27.75 10 C-32.83333333 14 -32.83333333 14 -35 14 C-35 13.34 -35 12.68 -35 12 C-33.13671875 10.34375 -33.13671875 10.34375 -30.6875 8.5 C-29.48673828 7.58734375 -29.48673828 7.58734375 -28.26171875 6.65625 C-24.13625578 3.63518558 -22.16895823 2.3173074 -17 3 C-14.83307443 4.17785538 -12.84252597 5.47867979 -10.83203125 6.90625 C-8.92630398 8.25630496 -8.92630398 8.25630496 -6 8 C-4.3122919 6.23598598 -4.3122919 6.23598598 -2.8125 4 C-2.28269531 3.2575 -1.75289063 2.515 -1.20703125 1.75 C-0.80871094 1.1725 -0.41039062 0.595 0 0 Z " fill="#57504A" transform="translate(376,184)"/>
<path d="M0 0 C0.69996094 0.34546875 1.39992187 0.6909375 2.12109375 1.046875 C6.03036697 3.09819256 8.48866852 5.38368267 11 9 C8.35245835 7.70296092 5.78752105 6.32262141 3.2421875 4.8359375 C-7.67471451 -1.84526506 -7.67471451 -1.84526506 -20 -2 C-22.08100864 -1.15797338 -23.98214041 -0.1977313 -25.9296875 0.91796875 C-29.72819007 2.90322387 -33.89117117 3.84267988 -38 5 C-40.00342734 5.65629516 -42.00531118 6.31760646 -44 7 C-41.31307179 3.64383689 -37.71060468 2.47323183 -33.8125 1 C-33.13703125 0.73944824 -32.4615625 0.47889648 -31.765625 0.21044922 C-30.43554295 -0.30178614 -29.10435587 -0.81116322 -27.77197266 -1.31738281 C-26.33186208 -1.87215674 -24.90404733 -2.45877088 -23.48046875 -3.0546875 C-14.28045892 -6.86534246 -8.39246779 -4.30129424 0 0 Z " fill="#5C6B66" transform="translate(170,191)"/>
<path d="M0 0 C1.485 0.99 1.485 0.99 3 2 C2.67 2.99 2.34 3.98 2 5 C2.87914688 7.6569191 2.87914688 7.6569191 4 10 C3.34 10 2.68 10 2 10 C2.495 10.94875 2.99 11.8975 3.5 12.875 C5 16 5 16 5 18 C4.34 18.33 3.68 18.66 3 19 C4.50306338 23.37300487 4.50306338 23.37300487 8 26 C7.34 26.99 6.68 27.98 6 29 C4.0625 28.3125 4.0625 28.3125 2 27 C1.27090544 24.56968481 1 22.52838375 1 20 C0.68197057 18.33034549 0.35015049 16.66321482 0 15 C0.66 15 1.32 15 2 15 C1.68417969 14.43539063 1.36835938 13.87078125 1.04296875 13.2890625 C-0.0500738 10.89010021 -0.42103936 8.98718795 -0.6875 6.375 C-0.77386719 5.59898437 -0.86023438 4.82296875 -0.94921875 4.0234375 C-1 2 -1 2 0 0 Z " fill="#DBD3AE" transform="translate(167,333)"/>
<path d="M0 0 C3.76495679 1.76966241 6.35683512 3.80209681 9 7 C8.34 7.33 7.68 7.66 7 8 C6.23816406 7.35804688 5.47632813 6.71609375 4.69140625 6.0546875 C0.1471387 3.03228942 -4.75973865 3.25100621 -10.0625 3.125 C-11.04283203 3.07859375 -12.02316406 3.0321875 -13.03320312 2.984375 C-17.97237253 2.81001193 -21.43531826 2.92324091 -26 5 C-19.18379949 -2.04340719 -9.39567025 -1.38589543 0 0 Z " fill="#514C47" transform="translate(226,227)"/>
<path d="M0 0 C3.06057041 3.06057041 4.0463345 6.95902992 5.5859375 10.95703125 C8.43090165 17.07920548 12.14260764 19.98061559 18 23 C19.96153452 24.035626 21.91971755 25.07761783 23.875 26.125 C24.82117188 26.62257812 25.76734375 27.12015625 26.7421875 27.6328125 C29 29 29 29 30 31 C29.27296875 30.70351563 28.5459375 30.40703125 27.796875 30.1015625 C26.09357761 29.43071073 24.37675238 28.79156288 22.640625 28.2109375 C14.86659494 25.49256751 8.64020239 21.44234531 4.36328125 14.24609375 C2.16295125 9.61216094 0.41849928 5.16149114 0 0 Z " fill="#CFC9A8" transform="translate(178,229)"/>
<path d="M0 0 C-3.60115489 3.46911255 -6.51596363 3.35100043 -11.390625 3.29296875 C-12.09523865 3.28872391 -12.79985229 3.28447906 -13.52581787 3.28010559 C-15.76760712 3.26336538 -18.00848431 3.22572404 -20.25 3.1875 C-21.77342448 3.17244704 -23.29686311 3.1587597 -24.8203125 3.14648438 C-28.54716941 3.11347791 -32.27349563 3.06172854 -36 3 C-35.67 2.34 -35.34 1.68 -35 1 C-23.31923512 0.33591591 -11.70134149 -0.15956375 0 0 Z " fill="#E6E3B9" transform="translate(363,372)"/>
<path d="M0 0 C2.84443872 3.4021718 5.14908864 6.82020858 7.3125 10.6875 C10.56448606 16.36791721 14.14998556 21.71061846 18 27 C17.67 27.66 17.34 28.32 17 29 C0 8.66507177 0 8.66507177 0 0 Z " fill="#D3CDAA" transform="translate(157,237)"/>
<path d="M0 0 C0 0.33 0 0.66 0 1 C-12.69112734 2.24380656 -25.23966572 3.36285311 -38 3 C-31.10034773 -3.89965227 -9.16185699 -0.07223686 0 0 Z " fill="#CAD4AF" transform="translate(369,289)"/>
<path d="M0 0 C21.776933 -0.86978874 21.776933 -0.86978874 29.75 5.6875 C30.86375 6.8321875 30.86375 6.8321875 32 8 C29 8 29 8 26.875 6.5625 C23.48186373 4.7184042 20.7909989 4.47936463 16.98828125 4.2109375 C15 4 15 4 13 3 C10.17956274 2.72579082 7.35946953 2.5538093 4.53125 2.37890625 C2 2 2 2 0 0 Z " fill="#FADAAB" transform="translate(210,236)"/>
<path d="M0 0 C1.47533203 0.02707031 1.47533203 0.02707031 2.98046875 0.0546875 C5.40463783 0.10175874 7.82682059 0.16749258 10.25 0.25 C7.20754953 3.29245047 4.99404681 3.23683103 0.71875 3.3125 C-1.92708333 3.27083333 -4.57291667 3.22916667 -7.21875 3.1875 C-10.00736658 3.23685605 -12.13008947 3.39451901 -14.75 4.25 C-11.0671236 -1.25265062 -5.94711347 -0.20589208 0 0 Z " fill="#FAD9A9" transform="translate(386.75,206.75)"/>
<path d="M0 0 C0.41507812 0.37511719 0.83015625 0.75023437 1.2578125 1.13671875 C6.65906992 5.62270033 12.14859949 7.67020203 18.828125 9.7265625 C22.09249741 11.03713566 23.74071085 12.34924986 26 15 C25.67 15.66 25.34 16.32 25 17 C24.278125 16.2575 23.55625 15.515 22.8125 14.75 C19.63269536 12.04071538 16.5049522 11.14726991 12.5 10.0625 C6.65718402 8.42651152 3.67081682 6.8245021 0 2 C0 1.34 0 0.68 0 0 Z " fill="#C9C5A5" transform="translate(87,278)"/>
<path d="M0 0 C-4.22214888 4.22214888 -9.95703177 4.32070803 -15.6328125 4.75390625 C-17.84289394 4.98366719 -19.86303318 5.40420971 -22 6 C-18.88944286 1.75833118 -15.54484271 1.13814847 -10.6171875 0.3046875 C-7.03442846 -0.11240982 -3.60329838 -0.1334555 0 0 Z " fill="#FADAAA" transform="translate(352,239)"/>
<path d="M0 0 C5.8064313 1.99503024 9.98769469 4.34054867 14 9 C11.42094207 8.06867353 9.31219346 7.258367 7.1875 5.5 C1.15536567 1.36367932 -5.13357923 1.82380755 -12 3 C-8.056146 -1.1231201 -5.48056618 -1.33647077 0 0 Z " fill="#FADCAC" transform="translate(162,196)"/>
<path d="M0 0 C11.22 0 22.44 0 34 0 C33.01 0.99 32.02 1.98 31 3 C28.08984375 2.72265625 28.08984375 2.72265625 26.23388672 2.36376953 C21.39934277 1.576505 16.45059669 1.6144578 11.5625 1.4375 C10.44939453 1.39431641 9.33628906 1.35113281 8.18945312 1.30664062 C5.45974156 1.20120112 2.72994857 1.09907971 0 1 C0 0.67 0 0.34 0 0 Z " fill="#A4C1A2" transform="translate(340,360)"/>
<path d="M0 0 C0.66 0 1.32 0 2 0 C2 0.66 2 1.32 2 2 C2.66 2 3.32 2 4 2 C4.66 2.66 5.32 3.32 6 4 C7.31747324 4.69748583 8.64914193 5.36959957 10 6 C9.34 6.66 8.68 7.32 8 8 C9.32 8.66 10.64 9.32 12 10 C10.68 11.32 9.36 12.64 8 14 C6.66397562 11.85580015 5.33107996 9.70976582 4 7.5625 C3.6184375 6.95083984 3.236875 6.33917969 2.84375 5.70898438 C0 1.11328125 0 1.11328125 0 0 Z " fill="#81AB93" transform="translate(104,329)"/>
<path d="M0 0 C0.99 0 1.98 0 3 0 C3.77112541 4.72314313 4.09764874 9.21521178 4 14 C3.01 14 2.02 14 1 14 C1 11.03 1 8.06 1 5 C-0.32 5.33 -1.64 5.66 -3 6 C-1.125 1.125 -1.125 1.125 0 0 Z " fill="#2E444B" transform="translate(169,219)"/>
<path d="M0 0 C2.6956681 0.98841164 3.81623311 1.69372185 5.3125 4.1875 C6.17572311 7.71886726 5.69397137 10.460746 5 14 C2.96470413 11.96470413 2.3615728 10.76582618 1.375 8.125 C1.11460937 7.44695312 0.85421875 6.76890625 0.5859375 6.0703125 C0 4 0 4 0 0 Z " fill="#767E72" transform="translate(172,220)"/>
<path d="M0 0 C1.8125 1.5 1.8125 1.5 3 3 C2.13117188 2.74347656 1.26234375 2.48695313 0.3671875 2.22265625 C-3.11002869 1.66299576 -3.11002869 1.66299576 -5.9921875 3.87109375 C-7.41917969 5.14146484 -7.41917969 5.14146484 -8.875 6.4375 C-9.84179688 7.28183594 -10.80859375 8.12617188 -11.8046875 8.99609375 C-12.89136719 9.98802734 -12.89136719 9.98802734 -14 11 C-14.66 10.67 -15.32 10.34 -16 10 C-14.73232923 8.70522938 -13.46073776 7.41429661 -12.1875 6.125 C-11.47980469 5.40570313 -10.77210938 4.68640625 -10.04296875 3.9453125 C-6.69925631 0.76143335 -4.61466837 -0.57683355 0 0 Z " fill="#484A48" transform="translate(313,230)"/>
<path d="M0 0 C0.33 0.99 0.66 1.98 1 3 C-1 6 -1 6 -4.3125 6.875 C-8.46869006 8.14299019 -10.18847088 9.76248162 -13 13 C-12.7153924 9.58470886 -12.20339329 8.21501576 -9.8125 5.6875 C-6.57283878 3.74370327 -4.71198163 3.65469938 -1 4 C-0.67 2.68 -0.34 1.36 0 0 Z " fill="#6D594C" transform="translate(279,224)"/>
<path d="M0 0 C5.03779302 3.93484425 9.97209729 8.27384528 13 14 C12.67 14.99 12.34 15.98 12 17 C11.45472656 16.25556641 11.45472656 16.25556641 10.8984375 15.49609375 C7.79884996 11.30767675 4.60285784 7.30571506 1.1015625 3.4453125 C0 2 0 2 0 0 Z " fill="#BFBD9F" transform="translate(107,275)"/>
<path d="M0 0 C2.99332739 0.9977758 3.94766315 1.7522025 6 4 C6.66 3.34 7.32 2.68 8 2 C10.5 2.1875 10.5 2.1875 13 3 C13.99 4.485 13.99 4.485 15 6 C13.02 5.34 11.04 4.68 9 4 C7.68 5.32 6.36 6.64 5 8 C0 2.25 0 2.25 0 0 Z " fill="#474D4B" transform="translate(380,186)"/>
<path d="M0 0 C2.50866154 1.1759351 3.51540594 2.63637921 5 4.9375 C3 3.9375 1 2.9375 -1 1.9375 C-1.40992188 2.5871875 -1.81984375 3.236875 -2.2421875 3.90625 C-2.78101563 4.7415625 -3.31984375 5.576875 -3.875 6.4375 C-4.40867187 7.2728125 -4.94234375 8.108125 -5.4921875 8.96875 C-5.98976563 9.6184375 -6.48734375 10.268125 -7 10.9375 C-7.66 10.9375 -8.32 10.9375 -9 10.9375 C-9 10.2775 -9 9.6175 -9 8.9375 C-8.34 8.9375 -7.68 8.9375 -7 8.9375 C-6.731875 8.009375 -6.46375 7.08125 -6.1875 6.125 C-3.86069049 -0.12064658 -3.86069049 -0.12064658 0 0 Z " fill="#5A534B" transform="translate(302,213.0625)"/>
<path d="M0 0 C1.65 0.33 3.3 0.66 5 1 C4.34 1.66 3.68 2.32 3 3 C2.01 3 1.02 3 0 3 C-1.65 5.97 -3.3 8.94 -5 12 C-5.99 11.67 -6.98 11.34 -8 11 C-8 9 -8 9 -6.25 7.1875 C-5.13625 6.1046875 -5.13625 6.1046875 -4 5 C-2.64843325 3.34808509 -1.31037934 1.68477344 0 0 Z " fill="#715849" transform="translate(376,184)"/>
<path d="M0 0 C2.98211604 0.50914176 4.23596674 1.5612635 6.5625 3.4375 C8.70983927 4.14264846 8.70983927 4.14264846 10.5625 4.4375 C9.5625 5.4375 9.5625 5.4375 6.8125 5.6875 C3.5625 5.4375 3.5625 5.4375 0.9375 3.8125 C0.15375 3.35875 -0.63 2.905 -1.4375 2.4375 C-3.74037793 3.12890351 -3.74037793 3.12890351 -5.4375 4.4375 C-3.13705157 0.56306054 -3.13705157 0.56306054 0 0 Z " fill="#4B4A48" transform="translate(321.4375,227.5625)"/>
<path d="M0 0 C3.96480297 1.67741664 6.84041677 4.12126862 10 7 C10.33 7.99 10.66 8.98 11 10 C6.53545019 8.635832 4.7904863 6.65649929 2 3 C1.34 3 0.68 3 0 3 C-0.66 3.66 -1.32 4.32 -2 5 C-1.125 1.125 -1.125 1.125 0 0 Z " fill="#494C4A" transform="translate(282,218)"/>
<path d="M0 0 C6.04383212 1.57665186 11.00988858 3.19175707 16 7 C12.70525545 7 10.53250948 6.28785623 7.4375 5.1875 C6.46683594 4.85105469 5.49617187 4.51460938 4.49609375 4.16796875 C2 3 2 3 0 0 Z " fill="#C4C1A2" transform="translate(137,293)"/>
<path d="M0 0 C5.72729096 0.42954682 9.39447802 2.84781971 14 6 C14.99 6.66 15.98 7.32 17 8 C10.90102346 7.62659327 7.71896728 5.74947648 3 2 C2.01 1.34 1.02 0.68 0 0 Z " fill="#4B4A47" transform="translate(336,227)"/>
<path d="M0 0 C2.475 0.99 2.475 0.99 5 2 C5 1.34 5 0.68 5 0 C6.65 0.33 8.3 0.66 10 1 C10.33 1.99 10.66 2.98 11 4 C7.7 3.67 4.4 3.34 1 3 C0.67 2.01 0.34 1.02 0 0 Z " fill="#3F6262" transform="translate(168,360)"/>
<path d="M0 0 C4.82675589 2.41337795 7.69984002 5.86062408 11 10 C8 10 8 10 5.5 7.6875 C4.675 6.800625 3.85 5.91375 3 5 C2.401875 4.443125 1.80375 3.88625 1.1875 3.3125 C0 2 0 2 0 0 Z " fill="#494E4D" transform="translate(242,228)"/>
<path d="M0 0 C8.44646925 6.15034169 8.44646925 6.15034169 12 10 C8.00118212 9.38479725 5.19641774 7.39731331 2 5 C2 4.34 2 3.68 2 3 C1.34 3 0.68 3 0 3 C0 2.01 0 1.02 0 0 Z " fill="#E5DBB4" transform="translate(85,266)"/>
<path d="M0 0 C4.29 0.99 8.58 1.98 13 3 C13 3.33 13 3.66 13 4 C11.59013562 4.3042656 10.17131189 4.56720908 8.75 4.8125 C7.56664062 5.03873047 7.56664062 5.03873047 6.359375 5.26953125 C4 5 4 5 0 0 Z " fill="#689383" transform="translate(136,370)"/>
<path d="M0 0 C4.55015893 1.51671964 6.50057264 5.16891053 9 9 C8.67 9.66 8.34 10.32 8 11 C6.66072279 9.54712339 5.32873153 8.08752741 4 6.625 C3.2575 5.81289063 2.515 5.00078125 1.75 4.1640625 C0 2 0 2 0 0 Z " fill="#B8B79B" transform="translate(149,268)"/>
<path d="M0 0 C4.95 0 9.9 0 15 0 C11 3 11 3 8.203125 2.85546875 C7.22859375 2.63503906 6.2540625 2.41460937 5.25 2.1875 C4.26515625 1.97480469 3.2803125 1.76210938 2.265625 1.54296875 C1.51796875 1.36378906 0.7703125 1.18460937 0 1 C0 0.67 0 0.34 0 0 Z " fill="#C4D1AD" transform="translate(348,372)"/>
<path d="M0 0 C0.66 0 1.32 0 2 0 C3.5078125 1.96875 3.5078125 1.96875 5.125 4.5 C5.66382813 5.3353125 6.20265625 6.170625 6.7578125 7.03125 C7.16773438 7.6809375 7.57765625 8.330625 8 9 C7.67 9.66 7.34 10.32 7 11 C5.82750647 9.54634731 4.66216184 8.08692581 3.5 6.625 C2.52546875 5.40683594 2.52546875 5.40683594 1.53125 4.1640625 C0 2 0 2 0 0 Z " fill="#DCD4AF" transform="translate(167,255)"/>
<path d="M0 0 C0.66 0.33 1.32 0.66 2 1 C0.6581656 5.02550319 -1.4227573 5.88285636 -5 8 C-5.66 8 -6.32 8 -7 8 C-7 7.34 -7 6.68 -7 6 C-5.46875 4.4921875 -5.46875 4.4921875 -3.5 2.875 C-2.8503125 2.33617187 -2.200625 1.79734375 -1.53125 1.2421875 C-1.0259375 0.83226562 -0.520625 0.42234375 0 0 Z " fill="#6F5547" transform="translate(348,190)"/>
<path d="M0 0 C0 1.65 0 3.3 0 5 C-5.875 2.25 -5.875 2.25 -7 0 C-2.25 -1.125 -2.25 -1.125 0 0 Z " fill="#679B89" transform="translate(137,348)"/>
<path d="M0 0 C1.98 0 3.96 0 6 0 C6.66 1.32 7.32 2.64 8 4 C8.66 4 9.32 4 10 4 C10 4.66 10 5.32 10 6 C7.53199953 4.84826645 5.95216435 3.95216435 4 2 C1.41645782 1.83312552 1.41645782 1.83312552 -1 2 C-0.67 1.34 -0.34 0.68 0 0 Z " fill="#404849" transform="translate(360,191)"/>
<path d="M0 0 C3.3 0 6.6 0 10 0 C8.515 1.485 8.515 1.485 7 3 C3.3125 2.6875 3.3125 2.6875 0 2 C0 1.34 0 0.68 0 0 Z " fill="#B0C7A6" transform="translate(364,360)"/>
<path d="M0 0 C1.485 0.99 1.485 0.99 3 2 C2.67 2.99 2.34 3.98 2 5 C2.87483915 7.16715557 2.87483915 7.16715557 4 9 C3.01 9 2.02 9 1 9 C-1.125 2.25 -1.125 2.25 0 0 Z " fill="#B8B79B" transform="translate(167,333)"/>
<path d="M0 0 C0.99 0 1.98 0 3 0 C3.144375 0.928125 3.28875 1.85625 3.4375 2.8125 C3.92100111 6.00725111 3.92100111 6.00725111 5 9 C4.01 9.33 3.02 9.66 2 10 C1.33333333 6.66666667 0.66666667 3.33333333 0 0 Z " fill="#D4CFAB" transform="translate(164,323)"/>
<path d="M0 0 C0.75 1.75 0.75 1.75 1 4 C-0.9375 6.25 -0.9375 6.25 -3 8 C-3.99 7.67 -4.98 7.34 -6 7 C-5.38125 6.5875 -4.7625 6.175 -4.125 5.75 C-1.93231719 3.94426121 -1.07211583 2.5909466 0 0 Z " fill="#F8D2A2" transform="translate(283,228)"/>
<path d="M0 0 C2.70931419 0.15481795 4.46584039 0.48172081 6.4453125 2.40234375 C7.67679642 3.89771708 8.8429837 5.4462924 10 7 C6.42032008 5.34784004 3.22017048 3.26875648 0 1 C0 0.67 0 0.34 0 0 Z " fill="#4F524E" transform="translate(171,193)"/>
<path d="M0 0 C3 1.5 3 1.5 6 3 C5.01 4.485 5.01 4.485 4 6 C2.0625 5.1875 2.0625 5.1875 0 4 C-0.33 3.01 -0.66 2.02 -1 1 C-0.67 0.67 -0.34 0.34 0 0 Z " fill="#97A18D" transform="translate(169,356)"/>
<path d="M0 0 C1.32 0.33 2.64 0.66 4 1 C3.38125 1.598125 2.7625 2.19625 2.125 2.8125 C-0.13676954 5.00811144 -0.13676954 5.00811144 -2 8 C-2.33 7.01 -2.66 6.02 -3 5 C-1.5625 2.3125 -1.5625 2.3125 0 0 Z " fill="#435354" transform="translate(382,228)"/>
</svg>
